<?xml version="1.0" standalone="no"?>
<!DOCTYPE svg PUBLIC "-//W3C//DTD SVG 1.1//EN" "http://www.w3.org/Graphics/SVG/1.1/DTD/svg11.dtd">
<svg xmlns="http://www.w3.org/2000/svg">
<metadata>Copyright (C) 2016 by original authors @ fontello.com</metadata>
<defs>
<font id="newsmaker" horiz-adv-x="1000" >
<font-face font-family="newsmaker" font-weight="400" font-stretch="normal" units-per-em="1000" ascent="850" descent="-150" />
<missing-glyph horiz-adv-x="1000" />
<glyph glyph-name="programada" unicode="&#xe800;" d="M641 346c5-4 11-7 18-8 8 0 14 2 19 8 5 6 8 12 8 19 0 7-3 13-8 18-5 6-11 9-19 8-7 0-13-3-18-8-5-4-8-10-8-18 0-8 3-14 8-19z m-10-75c-6 4-12 7-19 7-7 1-13-2-18-7-5-5-8-11-8-18 1-7 3-13 8-19 5-6 10-9 18-9 7 1 14 4 19 9 6 5 9 11 9 18 0 9-2 15-9 19z m-158 94c0-8 2-14 8-19 6-5 12-8 19-8 8 0 14 3 18 7l51 60 64 80c2 4 2 8-2 12-3 4-7 4-11 0l-138-114c-6-4-9-10-9-18z m-86-87c-8 1-14-2-19-7-5-5-8-11-8-18-1-6 2-12 8-19 6-8 13-10 19-9 7 2 13 5 19 9 6 4 8 10 8 19-1 8-3 14-8 18-4 4-11 6-19 7z m94-92c6-4 13-7 19-7 7-1 13 2 19 7 6 6 8 12 8 20s-3 13-8 19c-4 5-11 7-19 7s-14-2-19-7c-5-6-8-12-8-19-1-9 2-15 8-20z m0 319c6-4 13-7 19-8 7 0 13 2 19 8 6 6 8 12 8 20-1 7-3 13-8 18-4 5-11 8-19 8s-14-3-19-8c-5-5-8-11-8-18-1-9 2-15 8-20z m-140-167c9 0 16 2 19 8 4 6 6 12 7 19 1 7-1 13-7 18-5 6-12 9-19 8-8 0-14-3-19-8-5-4-8-10-8-18 3-8 5-14 8-19 3-4 9-7 19-8z m27 120c6-3 13-5 19-6 7-2 13 1 19 6 6 6 8 13 8 20-1 7-3 14-8 19-4 5-11 7-19 7-8 0-14-2-19-7-5-5-8-12-8-19-1-10 2-16 8-20z m441-365l-73 73c47 55 73 125 73 199 0 82-32 160-90 218-59 59-136 91-219 91-83 0-160-32-218-91-115-114-120-296-18-417l-73-73c-5-5-8-12-8-19v-74c0-15 12-27 27-27h583c7 0 13 3 18 8s8 12 8 19l-2 75c0 7-3 13-8 18z m-490 453c48 48 113 75 181 75 69 0 133-27 181-75 49-48 75-113 75-181 0-69-26-133-75-181-48-49-112-76-181-76-68 0-133 27-181 76-100 99-100 262 0 362z m-83-520v37l65 65c56-47 125-72 199-72 74 0 143 25 199 72l65-65 1-37h-529z m596 627l-44 43c-19 20-45 31-73 31-28 0-54-11-74-31-2-2-4-6-4-9 0-4 2-7 4-10l171-171c3-3 6-4 10-4 4 0 7 1 10 4 40 40 40 107 0 147z m-11-117l-150 150c13 9 28 14 44 14 20 0 40-8 54-23l43-43c27-27 30-68 9-98z m-462 141c3 3 4 6 4 10 0 3-1 7-4 9-20 20-46 31-74 31-28 0-54-11-73-31l-43-43c-41-40-41-107 0-147 2-3 6-4 9-4s7 1 10 4l171 171z m-171-43l43 43c14 15 34 23 54 23 16 0 31-5 44-14l-150-150c-21 30-18 71 9 98z" horiz-adv-x="1000" />

<glyph glyph-name="progreso" unicode="&#xe801;" d="M641 423c43 40 101 94 101 234v58c0 41-33 73-73 73h-338c-40 0-73-32-73-73v-58c0-140 59-194 101-234 30-27 45-43 45-73s-15-46-45-73c-42-40-101-94-101-234v-58c0-41 33-73 73-73h338c40 0 73 32 73 73v58c0 140-58 194-101 234-30 27-45 43-45 73s15 46 45 73z m-36-185c39-37 84-78 84-195v-58c0-12-9-21-20-21h-72c-51 10-57 79-94 79-41 0-36-69-109-79h-63c-11 0-20 9-20 21v58c0 117 45 158 84 195 21 19 42 39 53 67l1 0c7 16 25 45 51 45s44-26 52-45c0-1 0-2 1-3 12-26 32-45 52-64z m-105 244c-63 0-189 46-189 233 0 12 9 21 20 21h338c11 0 20-9 20-21 0-202-126-233-189-233z" horiz-adv-x="1000" />

<glyph glyph-name="progreso-fin" unicode="&#xe802;" d="M641 423c43 40 101 94 101 234v58c0 41-33 73-73 73h-338c-40 0-73-32-73-73v-58c0-140 59-194 101-234 30-27 45-43 45-73s-15-46-45-73c-42-40-101-94-101-234v-58c0-41 33-73 73-73h338c40 0 73 32 73 73v58c0 140-58 194-101 234-30 27-45 43-45 73s15 46 45 73z m-36 39c-31-28-62-57-62-112 0-54 31-84 62-112 28-26 58-54 73-108-19 13-41 32-61 50-41 37-80 72-117 72-36 0-72-31-111-64-22-19-44-38-65-50 17 49 45 76 71 100 31 28 62 58 62 112 0 54-31 84-62 112-39 37-84 78-84 195v58c0 12 9 21 20 21h338c11 0 20-9 20-21v-58c0-117-45-158-84-195z" horiz-adv-x="1000" />

<glyph glyph-name="progreso-vacio" unicode="&#xe803;" d="M641 423c43 40 101 94 101 234v58c0 41-33 73-73 73h-338c-40 0-73-32-73-73v-58c0-140 59-194 101-234 30-27 45-43 45-73s-15-46-45-73c-42-40-101-94-101-234v-58c0-41 33-73 73-73h338c40 0 73 32 73 73v58c0 140-58 194-101 234-30 27-45 43-45 73 0 30 15 46 45 73z m-36 39c-31-28-62-57-62-112 0-54 31-84 62-112 39-37 84-78 84-195v-58c0-12-9-21-20-21h-338c-11 0-20 9-20 21v58c0 117 45 158 84 195 31 28 62 58 62 112 0 54-31 84-62 112-39 37-84 78-84 195v58c0 12 9 21 20 21h338c11 0 20-9 20-21v-58c0-117-45-158-84-195z" horiz-adv-x="1000" />

<glyph glyph-name="recargar" unicode="&#xe804;" d="M294 305c0 33 6 65 19 94 12 30 30 56 52 77 15 16 33 30 53 41 19 11 40 19 63 25l-42-71c-4-8-5-15-3-24 2-7 6-14 13-18 8-5 16-6 24-4 9 2 15 7 19 15l70 122c2 3 4 5 4 8 1 3 1 6 1 10 0 6-1 12-5 17-3 5-7 9-12 11l-121 70c-8 4-16 5-24 3-9-2-15-7-19-15-4-8-5-15-3-23 3-8 7-14 14-19l49-28c-23-7-46-18-67-31-21-12-41-28-58-45-27-27-49-59-65-97-16-37-24-76-24-118 0-8 3-16 9-22 6-6 14-9 23-9 8 0 15 3 21 9 6 6 9 14 9 22z m412 91c0-34-6-65-19-95-13-30-30-56-52-77-15-16-32-30-52-41-19-11-40-19-63-24l41 70c4 8 5 16 3 24-2 8-7 14-14 18-8 5-16 6-24 3-8-2-14-7-18-14l-71-122c-1-3-3-5-3-8-1-3-1-6-1-10 0-6 1-11 4-16 4-5 8-9 13-12l123-70c7-4 14-5 22-2 8 2 14 7 19 14 4 7 5 15 2 23-2 8-7 14-14 18l-48 29c23 7 46 18 67 30 20 13 40 28 57 46 28 27 50 59 66 97 16 38 24 77 24 119 0 8-3 15-9 21-6 6-14 9-23 9-8 0-15-3-21-9-7-6-10-13-9-21z" horiz-adv-x="1000" />

<glyph glyph-name="recargar-creditos" unicode="&#xe805;" d="M635 457c2 3 2 6 1 9-1 3-2 5-5 6-3 2-6 3-9 2-3-1-5-3-6-5l-26-45c-1-1-1-2-1-3-1-1-1-2-1-3 0-3 1-5 2-6 1-2 3-4 5-5l44-25c3-2 5-2 8-1 3 1 6 3 7 5 2 3 2 6 1 9s-2 5-5 6l-18 11c9 2 17 6 25 11 7 5 14 10 21 16 10 10 18 22 24 36 5 13 8 28 8 43 0 3-1 6-3 8-2 2-5 3-8 3-3 0-6-1-8-3-2-2-3-5-3-8 0-12-2-24-7-34s-11-21-19-29c-5-5-12-10-19-14-7-5-15-7-23-9l15 25z m-108 17c3 0 5 1 8 3 2 2 3 5 3 8 0 12 2 24 7 34 4 11 11 21 19 28 5 6 12 11 19 15 7 4 15 7 23 9l-15-26c-2-2-2-5-2-8 1-3 3-5 5-7 3-2 6-2 9-1 3 0 5 2 7 5l25 45c1 1 2 2 2 3 0 1 0 2 0 3 0 2 0 4-2 6-1 2-2 3-4 4l-44 26c-3 1-6 2-9 1-3-1-5-3-7-5-1-3-2-6-1-9 1-3 3-5 5-7l18-10c-8-3-17-6-24-11-8-5-15-10-21-17-10-10-18-21-24-35-6-13-9-28-9-43 0-3 1-6 3-8 3-2 5-3 9-3z m368 72c-21 21-46 32-76 32h-45c-8 17-20 34-35 49-34 36-77 54-126 53-50 0-92-18-127-53-15-15-27-31-35-49h-270c-30 0-55-11-75-32-21-21-31-46-31-75v-345c0-30 10-55 31-75 20-21 45-31 75-31h638c30 0 55 10 76 31 20 20 30 45 30 75v345c0 29-10 54-30 75z m-384 43c24 28 54 44 91 46 37 3 69-8 98-32 29-24 44-54 47-92 3-37-8-69-32-98-24-28-55-43-91-46-37-3-70 8-98 32-29 24-45 55-47 92-3 36 7 69 32 98z m-383-151l186-139-186-140v279z m728-349c-10-11-23-16-37-16h-638c-15 0-27 6-37 16-10 10-16 22-16 37l208 156 116-86c14-11 30-17 48-17 18 0 34 6 49 17l115 86 208-156c0-14-5-26-16-37z m16 70l-186 140 186 139v-279z m-341 56c-9-6-19-10-31-10-12 0-22 4-31 10l-110 84-23 16-208 156c0 15 5 28 16 38 11 10 23 15 37 15h255c-1-7-2-15-2-23 0-51 17-93 52-126 35-33 77-51 127-52 49-2 92 16 126 52 35 36 53 78 53 126 0 8-1 16-2 23h29c15 1 27-4 37-15 11-11 16-23 16-38l-341-256z" horiz-adv-x="1000" />

<glyph glyph-name="redimensionar" unicode="&#xe806;" d="M725 152l0 80c0 14-12 26-27 26-14 0-26-12-26-26v-16l-135 134 135 134 0-16c0-7 3-14 8-18 4-5 11-8 18-8 15 0 27 12 27 26l0 80c0 15-12 27-27 27h-80c-14 0-26-12-26-27 0-14 12-26 26-26h16l-134-135-134 135h16c14 0 26 12 26 26 0 15-12 27-26 27h-80c-15 0-26-12-26-27v-80c0-7 3-14 7-18 5-5 12-8 19-8 15 0 26 12 26 26v16l135-134-135-134v16c0 14-11 26-26 26-15 0-26-12-26-26v-80c0-7 3-14 7-19 5-5 12-7 19-7h80c14 0 26 11 26 26s-12 26-26 26h-16l134 135 135-135h-17c-14 0-26-12-26-26 0-7 3-14 8-19 4-5 11-8 18-8h80c15 1 27 12 27 27z" horiz-adv-x="1000" />

<glyph glyph-name="reordenar" unicode="&#xe807;" d="M269 445c-8-8-18-12-29-12-12 0-22 4-29 12-8 8-12 18-12 29 0 12 4 22 12 29l256 257c8 8 18 12 29 12 11 0 21-4 28-12l257-257c8-8 12-17 12-29 0-11-4-21-12-29-8-8-18-12-29-12-12 0-21 4-29 12l-227 228-227-228z m227-436l-227 228c-8 8-18 12-29 12-12 0-22-4-29-12-8-8-12-18-12-29 0-12 4-21 12-29l256-257c8-8 18-12 29-12 11 0 21 4 28 12l257 257c8 8 12 17 12 29 0 11-4 21-12 29s-18 12-29 12c-12 0-21-4-29-12l-227-228z" horiz-adv-x="1000" />

<glyph glyph-name="reportes" unicode="&#xe808;" d="M831 640c-80 81-188 125-302 125-114 0-221-44-302-125-166-166-166-437 0-604 81-81 188-125 302-125s222 44 302 125c81 81 125 188 125 302 0 114-44 221-125 302z m-302-481c-99 0-179 80-179 179s80 179 179 179 180-80 180-179-81-179-180-179z m-13 547h-54c18 3 35 5 54 6v-6z m0-27v-20h-180c12 7 25 14 38 20h142z m0-47v-21h-241l-1 1c8 7 15 13 23 20h219z m0-48v-15c-14 0-27-2-40-5h-153l-20 20h213z m-106-47c-13-8-24-16-35-26l-25 26h60z m384-464c-67-67-156-106-251-109v143c122 7 218 108 218 231s-96 224-218 231v143c95-3 184-42 251-109 71-71 110-165 110-265 0-100-39-194-110-265z" horiz-adv-x="1000" />

<glyph glyph-name="subrayado" unicode="&#xe809;" d="M275 116h450v-58h-450v58z m401 236c0-23-3-45-11-66-7-20-18-38-33-53-14-16-33-28-56-37-22-9-49-14-80-14-30 0-56 5-77 14-22 9-40 21-54 36s-24 31-31 51c-6 19-10 39-10 60v299h61v-281c0-49 12-82 36-99 24-17 50-26 77-26 28 0 54 9 80 25 25 17 38 50 38 98v283h60v-290z" horiz-adv-x="1000" />

<glyph glyph-name="telefono" unicode="&#xe80a;" d="M692-35c-54 0-112 21-178 63-63 40-126 95-188 164-57 64-102 127-133 188-32 62-49 119-51 170-1 56 16 101 52 133l48 43c10 9 24 11 36 6l5-2c5-1 11-3 19-6 14-7 28-15 41-24 17-11 33-25 47-42 11-12 21-25 29-40 7-10 13-22 18-34 3-9 6-17 9-25 2-9 4-16 4-24l0-3c1-11-3-22-11-29l-49-44c-5-5-11-9-16-12 2-5 4-10 8-17 16-32 44-71 82-114 39-44 74-76 104-96 6-4 12-8 17-10 4 5 9 10 13 14l50 45c9 8 22 11 33 7l9-2c13-5 25-10 37-17 26-14 50-33 70-56 11-12 20-25 29-40 6-10 12-22 17-34 4-10 7-18 9-26 1-3 1-5 2-6 0-2 1-4 2-7l1-9c2-12-2-24-11-33l-47-42c-30-26-65-39-107-39z m-419 694l-32-28c-20-18-29-44-28-79 1-40 15-87 43-140 28-56 69-114 122-173 58-65 116-115 173-152 88-55 160-67 201-30l31 28c-1 5-3 10-5 15-4 9-8 18-13 26-6 10-13 20-21 29-15 16-32 30-51 40-4 3-9 5-14 7l-34-31c-5-4-8-9-11-16-6-14-20-23-36-22-20 2-43 11-69 28-35 24-74 60-117 108-44 49-74 91-93 129-14 27-21 50-21 70 0 16 11 30 27 34 7 2 13 5 18 9l34 31c-1 5-3 10-5 16-4 8-8 17-13 25-6 10-13 20-21 29-11 12-22 22-35 30-10 7-20 13-29 17 0 0-1 0-1 0z" horiz-adv-x="1000" />

<glyph glyph-name="usuario" unicode="&#xe80b;" d="M912 4c-42 63-160 192-258 211 48 50 82 111 101 183 6 26 9 55 10 87 0 32-6 68-20 107-13 39-32 72-56 99-48 50-111 76-190 76h0c-79 0-142-26-189-76-24-27-43-60-56-99-14-39-21-75-20-107 1-32 4-61 9-87 20-72 54-133 101-183-97-19-216-149-257-211-14-22-19-35-11-56 3-9 9-16 19-23 9-6 20-9 32-9h745c12 0 23 3 32 9 10 7 16 14 19 23 8 21 3 34-11 56z m-607 372c-17 50-21 100-14 149 9 54 30 101 66 139 35 38 83 57 142 57 60 0 108-19 143-57 35-38 57-85 66-139 7-49 2-99-14-149-16-50-44-95-82-133l-8-10c-32-31-67-47-105-47-37 0-72 16-104 47l-9 10c-38 38-65 83-81 133z m-178-407c43 53 137 185 228 202l66 11c26-14 52-21 78-21 26 0 52 7 79 21l66-11c90-17 185-149 228-202h-745z" horiz-adv-x="1000" />

<glyph glyph-name="usuarios" unicode="&#xe80c;" d="M962 59c-27 40-103 123-165 135 31 32 52 71 65 117 3 17 5 35 6 56 0 20-4 43-13 68-8 25-20 46-36 64-29 31-68 47-117 48-3 15-7 32-13 49-14 39-33 72-56 99-48 50-111 75-190 75h0c-79 0-142-25-190-75-24-27-42-60-56-99-14-39-20-75-19-107 0-32 3-61 9-88 20-71 53-132 101-183-97-18-216-148-257-211-14-21-20-34-12-55 3-9 9-17 19-23 10-6 21-9 32-9h746c11 0 22 3 32 9 9 6 16 14 19 23 7 19 3 32-9 51h78c8 0 15 2 21 6 6 4 10 9 12 15 5 13 2 22-7 35z m-714 321c-16 50-21 100-13 149 8 54 30 100 65 139 35 38 83 57 143 57 60 0 108-19 143-57 35-39 57-85 65-139 8-49 3-99-13-149-17-50-44-95-82-134l-9-10c-31-31-66-46-104-46-38 0-73 15-105 46l-8 10c-38 39-65 84-82 134z m-177-407c42 52 137 185 228 202l66 11c26-14 52-21 78-21 26 0 52 7 78 21l66-11c91-17 186-150 228-202h-744z m763 64c-53 67-152 166-236 181 47 51 81 112 101 183 6 27 9 56 9 88 1 9 0 19-1 29 34-2 62-14 82-37 23-24 37-54 42-88 5-32 2-64-8-96-11-32-28-60-53-85l-5-6c-21-25 11-37 26-40 57-11 118-95 145-129h-102z" horiz-adv-x="1000" />

<glyph glyph-name="zipcode" unicode="&#xe80d;" d="M607 395c32 30 47 67 47 113-1 45-16 83-47 113-30 30-68 45-113 46-45 0-82-15-113-46-31-31-46-69-46-113-1-43 14-81 46-113 32-33 69-48 113-47 44 1 81 17 113 47z m-246 113c0 34 13 65 40 93 26 28 57 41 93 39 36-1 68-14 94-39 26-24 39-55 39-93 0-38-13-70-39-95-26-25-58-37-94-38-36-1-67 12-93 38-27 26-40 58-40 95z m629-606l-150 195c-3 3-7 5-11 5h-199c0 1 1 1 1 2 25 32 54 72 86 120 32 47 56 94 72 141 16 46 24 92 24 136 0 89-31 165-93 226-62 61-137 92-226 93-89 0-164-31-226-93-62-62-93-138-93-226 0-45 8-90 24-136 16-46 40-93 72-141 33-49 61-88 86-120 1-1 1-1 1-2h-187c-4 0-8-2-11-5l-150-195c-3-4-3-10-1-14 2-5 7-8 12-8h958c5 0 10 3 12 8 3 4 2 10-1 14z m-665 334c-32 47-57 93-72 137-16 45-24 87-24 128-1 74 25 137 77 188 52 51 115 77 188 77 73 1 136-25 188-77 52-52 78-115 78-188 1-40-7-82-24-128-17-45-42-91-74-137-31-46-58-82-79-108-22-27-50-61-86-102l-3-4c0 1 0 2-2 4h-1c-35 42-64 76-85 102-22 25-49 61-81 108z m-276-329l129 168h202c21-25 44-53 71-84 11-15 25-22 41-22h4c16 0 30 7 41 22 27 31 51 59 71 84h214l129-168h-902z" horiz-adv-x="1000" />

<glyph glyph-name="acciones" unicode="&#xe80e;" d="M75 313v74c0 11 4 23 13 33 8 10 18 16 30 18l82 17c3 11 7 23 13 35l-45 68c-8 11-11 23-9 35 2 13 7 23 15 33l51 50c10 10 23 16 38 16 11 0 21-3 30-9l68-46c12 6 23 11 35 14l16 81c2 12 8 23 18 30 11 8 22 13 34 13h73c11 0 23-4 33-13 10-8 16-18 18-30l17-81c11-3 23-8 34-14l69 46c9 6 19 9 29 9 15 0 28-6 39-16l50-50c9-9 15-20 16-33 1-13-2-25-9-35l-46-68c6-12 11-24 14-35l81-17c12-2 23-8 30-18 8-10 13-22 13-33v-74c0-11-4-22-13-33-8-10-18-16-30-18l-81-17c-3-11-8-23-14-34l46-68c7-12 10-24 9-36-1-13-7-23-16-32l-50-51c-11-10-24-16-39-16-10 0-20 3-29 10l-69 45c-11-6-23-11-34-14l-17-81c-2-12-8-23-18-30-10-8-22-13-33-13h-73c-12 0-23 4-34 12-10 8-16 18-18 31l-16 81c-12 3-23 8-35 14l-68-45c-9-7-19-10-30-10-15 0-28 6-38 16l-51 51c-8 8-13 19-15 32-2 13 1 25 9 36l45 68c-6 11-10 23-13 34l-82 17c-12 2-22 8-30 18-8 10-13 22-13 33z m53 0l81-16c20-3 33-14 40-34 4-9 8-19 12-29 9-18 7-35-3-51l-47-70 52-52 70 47c8 5 17 8 27 8 9 0 17-2 24-5 10-4 20-8 29-12 20-7 31-20 34-40l17-81h73l17 81c2 20 14 33 33 40 9 4 19 8 30 12 6 3 14 5 23 5s19-3 28-8l69-47 52 52-47 70c-10 16-11 33-3 51 5 10 9 20 12 29 7 20 20 31 40 34l81 16v74l-81 17c-20 2-33 13-40 33-3 9-7 19-12 30-8 17-7 34 3 51l47 69-52 52-69-47c-9-5-18-8-28-8s-17 2-23 5c-11 5-21 9-30 12-19 7-31 20-33 40l-17 81h-73l-17-81c-3-20-14-33-34-40-9-3-19-7-29-12-7-3-15-5-24-5-10 0-19 3-27 8l-70 47-52-52 47-69c10-17 12-34 3-51-4-11-8-21-12-30-7-20-20-31-40-33l-81-17v-74z m186 37c0 51 18 95 55 131 37 36 81 55 131 55 51 1 94-18 131-55 37-37 55-81 55-131 0-50-18-94-55-131-37-37-80-56-131-55-50 0-94 19-131 55-37 36-55 80-55 131z m24 0c0-45 15-84 46-116 32-31 70-47 116-46 46 0 85 16 116 46 31 31 46 70 46 116 0 47-15 85-46 116-31 30-70 46-116 46-46 1-84-15-116-46-31-32-46-71-46-116z m56 0c0 30 10 55 30 76 21 20 46 30 76 30 30 0 55-10 76-31 20-21 30-46 30-76s-10-54-30-75c-21-20-46-30-76-30-30 0-55 10-76 30-20 21-30 46-30 76z m26 0c0-22 8-41 24-56 16-15 35-23 56-24 22 0 40 7 56 24 16 16 24 35 24 56 0 21-8 40-24 56-16 17-34 25-56 24-21-1-40-9-56-24-16-15-24-34-24-56z" horiz-adv-x="1000" />

<glyph glyph-name="add-usuarios" unicode="&#xe80f;" d="M840 12c-42 63-160 193-258 211 48 51 82 112 101 183 6 27 9 56 10 88 0 32-6 68-20 107-13 39-32 72-56 99-48 50-111 75-190 75h0c-79 0-142-25-189-75-24-27-43-60-56-99-14-39-21-75-20-107 1-32 4-61 9-88 20-71 54-133 102-183-98-18-217-148-258-211-14-21-19-34-11-55 3-9 9-17 18-23 10-6 21-9 33-9h745c12 0 23 3 32 9 10 6 16 14 19 23 8 21 3 34-11 55z m-607 373c-17 50-21 100-14 149 9 54 30 100 66 139 35 38 83 57 142 57 60 0 108-19 143-57 35-39 57-85 66-139 7-49 2-99-14-149-16-50-44-95-82-134l-8-10c-32-31-67-46-105-46-37 0-72 15-104 46l-9 10c-38 39-65 84-81 134z m-178-408c43 53 137 186 228 203l66 11c26-14 52-22 78-22s52 8 79 22l66-11c90-17 185-150 228-203h-745z m776 119c-8 0-15 2-21 8-6 6-9 14-9 23v102h-103c-9 0-16 4-22 10-6 6-9 13-9 22s3 15 9 21c6 7 13 10 22 10h103v106c0 8 3 15 9 21 6 6 14 9 22 9 8 0 16-3 22-9 6-6 9-13 9-21v-107h107c8 0 15-3 21-9 6-6 9-13 9-21 0-9-3-17-9-23-6-6-13-9-21-9h-108v-102c0-9-3-17-9-23-5-6-13-8-22-8z" horiz-adv-x="1000" />

<glyph glyph-name="administrar" unicode="&#xe810;" d="M582 444c16 0 30 6 41 17 11 11 16 24 16 40s-5 29-16 41c-11 11-25 16-41 16-16 0-30-5-41-16-11-11-16-25-16-41 0-16 5-29 16-40 11-11 25-17 41-17z m-30 87c8 9 19 13 30 13 12 1 22-4 30-13 9-8 13-18 13-30 0-11-4-21-13-30-8-9-18-13-30-13-11 1-22 5-30 13-9 8-13 18-13 30 0 12 4 22 13 30z m30-130c27 0 51 10 70 30 20 20 30 44 30 70s-10 51-30 71c-19 20-43 30-70 29-27 0-50-10-70-29-20-20-30-43-30-71 0-27 10-51 30-70 20-20 43-29 70-30z m-62 162c17 18 37 26 62 26 25-1 45-9 62-26 17-16 25-37 25-62 0-25-8-45-25-62-17-16-37-25-62-25-25 0-45 8-62 25-17 17-25 38-25 62s8 45 25 62z m375-66c-21 21-46 31-76 31h-10c-1 4-3 7-5 11-5 5-10 9-17 10l-43 9c-2 6-4 12-7 18l24 37c4 6 5 12 5 19-1 7-4 13-9 17l-27 27c-6 6-13 9-20 9-6 0-12-2-16-5l-37-24c-6 3-13 5-19 7l-8 44c-2 6-5 11-10 16-6 5-12 7-18 7h-40c-6 0-12-3-17-7-6-4-9-10-10-16l-9-44c-6-2-12-4-19-7l-36 24c-5 3-11 5-16 5-8 0-15-3-21-9l-27-27c-4-4-7-10-8-17-1-7 0-13 4-19l25-37c-3-6-6-12-7-18l-44-9c-6-1-12-5-17-10-2-4-4-7-5-11h-174c-30 0-55-10-75-31-21-21-31-46-31-75v-345c0-30 10-56 31-76 20-21 45-31 75-31h638c30 0 55 10 76 31 20 20 30 46 30 76v345c0 29-10 54-30 75z m-513 24l44 9c10 2 18 8 21 18 2 5 4 10 7 16 4 9 4 19-2 27l-25 38 28 28 37-25c5-3 10-5 15-5 5 0 9 1 13 3 5 2 10 4 15 6 11 4 17 11 19 22l8 43h40l9-43c1-11 7-18 18-22 5-2 10-4 16-6 3-2 7-3 13-3 5 0 10 1 14 5l38 25 27-28-25-38c-5-8-6-18-1-27 2-6 4-11 6-16 4-10 11-16 21-18l44-9v-39l-44-9c-10-2-17-8-21-18-2-5-4-11-6-16-5-10-4-19 1-28l25-37-27-28-38 25c-4 3-9 5-14 5-6 0-10-1-13-3-6-3-11-5-16-6-11-4-17-11-18-22l-9-44h-40l-8 44c-2 11-8 18-19 22-5 1-10 3-15 6-4 2-8 3-13 3-5 0-10-2-15-5l-37-25-28 28 25 37c6 9 6 18 2 28-3 5-5 11-7 16-3 10-11 16-21 18l-44 9v39z m-254-132l186-140-186-139v279z m728-350c-10-11-23-16-37-16h-638c-15 1-27 6-37 16-10 10-16 23-16 38l208 155 116-86c14-11 30-17 48-17 18 0 34 6 49 17l115 86 208-155c0-15-5-27-16-38z m16 71l-186 139 186 140v-279z m-341 56c-9-7-19-10-31-10-12 0-22 3-31 10l-110 83-23 16-208 157c0 15 5 27 16 37 11 10 23 16 37 16h174c1-4 3-8 5-11 5-6 10-9 17-10l44-9c1-6 4-12 7-19l-25-36c-4-6-5-12-4-19 1-7 4-13 8-18l27-27c6-5 13-8 21-8 5 0 11 1 16 5l36 24c7-3 13-6 19-7l9-44c1-7 4-13 10-17 5-4 11-6 17-6h40c6 0 12 2 18 7 5 4 8 9 10 16l8 44c6 1 13 4 19 7l37-24c5-4 10-5 16-5 8 0 14 3 20 8l27 27c5 5 8 11 9 18 0 6-1 13-5 19l-24 36c3 7 5 13 7 19l43 9c7 1 12 4 17 10 3 3 4 7 5 11h10c15 0 27-5 37-16 11-11 16-23 16-37l-341-256z" horiz-adv-x="1000" />

<glyph glyph-name="agregar" unicode="&#xe811;" d="M497 128c-11 0-21 4-29 12-7 8-11 18-11 30v137h-138c-11 0-21 4-29 12-8 9-12 18-12 30 0 11 4 20 12 29s18 12 29 12h138v141c0 11 4 21 12 29 8 8 18 12 29 12 11 0 21-4 29-12 8-8 13-18 13-29v-142h142c11 0 20-4 28-12 8-8 12-17 12-28 0-12-4-22-12-30-8-8-17-12-28-12h-143v-137c0-12-4-22-12-30-8-8-18-12-30-12z" horiz-adv-x="1000" />

<glyph glyph-name="agregar-campana" unicode="&#xe812;" d="M975 381c0 48-18 90-52 126-31 31-66 48-107 52v12c0 15-5 27-16 39l-159 159c-11 10-24 15-38 15h-438c-22-1-41-9-57-24-15-15-23-34-23-56v-341c-32 23-60 4-60-17v-324c0-30 11-55 31-75 20-21 46-31 76-31h637c30 0 56 10 76 31 21 20 31 45 31 75v198c17 8 32 20 47 35 34 36 52 78 52 126z m-372 349l159-159h-106c-14 0-26 5-37 16-11 10-16 23-16 37v106z m-464-26c-1 7 2 14 7 19 5 5 11 7 19 7h412v-106c0-22 7-41 23-56 15-15 34-23 57-23h67c-20-9-38-21-55-38-13-13-23-27-31-42h-201c-9 0-13-4-13-14 0-8 4-12 13-12h189c-5-17-8-35-9-54h-412c-9 0-13-4-13-13 0-9 4-13 13-13h413c3-20 7-37 15-54h-428c-9 0-13-4-13-13 0-9 4-13 13-13h443c7-9 13-17 21-25 1 0 1 0 1 0l-36-28h-367l-128 97v381z m459-505l-116-87c-9-7-20-10-31-10-12 0-23 3-32 10l-116 87h295z m-519 136l185-140-185-139v279z m728-350c-10-10-23-16-38-16h-637c-15 0-28 6-38 16-10 10-15 23-15 37l207 156 116-86c15-11 31-17 49-17 17 0 33 6 48 17l116 86 207-156c0-14-5-27-15-37z m15 71l-185 139 55 41c30-21 64-33 104-34 9 0 18 1 26 2v-148z m-15 191c-37-3-70 8-98 32-29 24-44 55-47 91-3 37 7 70 32 98 24 29 55 44 91 47 37 2 70-9 98-32 29-24 45-55 47-92 3-37-8-70-32-98s-55-43-91-46z m72 152h-65v65c0 5-2 10-6 13-3 4-8 6-13 6-5 0-10-2-13-6-4-3-6-8-6-13v-65h-63c-5 0-10-2-13-5-4-4-6-8-6-14 0-5 2-9 6-13 3-4 8-6 13-6h63v-62c0-6 2-10 5-14s8-5 14-5c5 0 10 1 13 5s6 8 6 14v62h65c5 0 10 2 13 6 4 3 6 8 6 13 0 6-2 10-6 13-3 4-8 6-13 6z m-442 119h73c9 0 13 4 13 13 0 9-4 14-13 14h-73c-9 0-13-5-13-14 0-9 4-13 13-13z m-219-79h126c8-1 14 1 19 6 5 6 8 12 8 20v159c-1 9-3 15-8 20-5 4-11 6-19 6h-126c-7 1-14-1-19-6-5-6-7-12-7-20v-159c0-8 2-15 7-20 5-4 12-6 19-6z m27 159h73v-107h-73v107z m192 0h73c9 0 13 5 13 13 0 9-4 13-13 13h-73c-9 0-13-4-13-13 0-9 4-13 13-13z" horiz-adv-x="1000" />

<glyph glyph-name="ajustes" unicode="&#xe813;" d="M75 510c0 43 18 78 53 105v80c0 22 8 41 23 57 16 16 34 24 57 23 22 0 41-8 57-23 15-15 23-33 22-57v-80c36-27 54-62 54-105 0-43-18-79-54-106v-399c0-22-7-41-22-57-16-16-35-24-57-23-23 0-42 8-57 23-14 14-22 33-23 57v399c-35 27-53 62-53 106z m53 0c0-7 1-14 3-22l2-5c2-8 5-14 10-21 4-6 10-12 17-17 7-5 14-8 21-10 9-3 18-5 27-5 8 0 17 2 27 5 7 2 14 6 21 11 7 5 12 10 16 17 5 6 8 12 10 20l2 5c2 8 3 15 3 22 0 7-1 14-3 21-1 2-2 4-2 5-2 8-5 14-10 20-4 7-9 13-16 18-7 5-14 8-21 10-9 3-18 5-27 5-10 0-18-2-27-5-8-2-15-6-21-11-6-5-11-10-17-17-5-6-8-12-10-20l-2-5c-2-8-3-15-3-21z m53 129c9 2 18 4 27 4 8 0 17-2 27-4v56c0 8-3 15-8 20-5 5-12 7-19 7-8-1-15-3-19-7-5-4-7-11-8-20v-56z m0-634c0-8 3-15 8-20 5-5 11-7 19-7 7 0 13 2 19 7 6 5 8 12 8 20v375c-9-2-18-4-27-4-10 0-18 2-27 4v-375z m186 186c0 43 18 79 53 106v398c0 22 8 41 24 57 16 16 35 24 56 23 22 0 40-8 56-23 16-15 24-33 24-57v-398c35-27 53-63 53-106s-18-79-53-106v-80c0-22-8-41-24-57-16-16-34-24-56-23-21 0-40 8-56 23-16 14-24 34-24 57v80c-35 27-53 62-53 106z m53 0c0-7 1-14 3-22l2-5c2-8 6-14 10-21 5-6 10-11 17-17 6-5 13-8 22-10 8-3 17-5 26-5 9 0 18 2 26 5 8 2 16 6 22 11 7 5 12 10 17 16 4 7 8 13 10 21 0 1 0 3 2 5 2 8 3 15 3 22 0 7-1 14-3 21l-2 5c-2 8-6 15-10 21-5 6-10 11-17 16-6 6-14 9-22 11-8 3-17 5-26 5-9 0-18-2-26-5-8-2-16-5-22-11-6-5-11-10-17-17-4-6-8-12-10-20l-2-5c-2-8-3-15-3-21z m54 129c8 3 17 4 26 4 9 0 18-1 26-4v375c0 8-2 15-7 20-5 5-12 7-19 7-7-1-14-3-19-7-5-4-7-11-7-20v-375z m0-315c0-8 2-15 7-20 5-5 12-7 19-7 7 0 14 2 19 7 5 5 7 12 7 20v56c-8-2-17-3-26-3-9 0-18 1-26 3v-56z m186 505c0 43 17 78 53 105v80c0 22 7 41 23 57 15 16 34 24 57 23 22 0 41-8 56-23 14-15 22-33 23-57v-80c35-27 53-62 53-105 0-43-18-79-53-106v-399c0-22-8-41-23-57-16-16-34-24-56-23-23 0-42 8-57 23-16 14-24 33-23 57v399c-36 27-53 62-53 106z m53 0c0-7 1-14 3-22l2-5c2-8 5-14 10-20 4-7 9-13 16-18 7-5 14-8 21-10 9-3 19-5 28-5 9 0 17 2 26 5 8 2 15 6 22 11 6 5 12 10 16 16 5 7 8 13 10 21 0 1 1 3 2 5 2 8 3 15 3 22 0 7-1 14-3 21l-2 5c-2 8-5 14-10 21-4 6-10 11-16 16-7 5-14 9-22 11-9 3-18 5-26 5-9 0-18-2-28-5-7-2-14-6-21-11-7-5-12-10-16-17-5-6-8-12-10-20l-2-5c-2-8-3-15-3-21z m52 129c9 2 18 4 28 4 9 0 17-2 26-4v56c0 8-3 15-8 20-5 5-11 7-18 7-8-1-14-3-20-7-6-4-8-11-8-20v-56z m0-634c0-8 3-15 8-20 5-5 12-7 20-7 7 0 14 2 18 7 5 5 7 12 8 20v375c-9-2-18-4-26-4-9 0-18 2-28 4v-375z" horiz-adv-x="1000" />

<glyph glyph-name="alineado-centro" unicode="&#xe814;" d="M794-85h-588c-14 0-26 12-26 26 0 15 12 27 26 27h588c15 0 26-12 26-27 0-14-11-26-26-26z m101 231c0 14-11 26-26 26h-738c-14 0-26-12-26-26s12-27 26-27h738c15 0 26 12 26 27z m-45 204c0 15-11 26-26 26h-648c-14 0-26-11-26-26s12-26 26-26h648c15 0 26 11 26 26z m120 204c0 15-11 27-26 27h-888c-14 0-26-12-26-27s12-26 26-26h888c15 0 26 12 26 26z m-75 205c0 14-11 26-26 26h-738c-14 0-26-12-26-26s12-27 26-27h738c15 0 26 12 26 27z" horiz-adv-x="1000" />

<glyph glyph-name="alineado-derecha" unicode="&#xe815;" d="M944-85h-588c-14 0-26 12-26 26 0 15 12 27 26 27h588c15 0 26-12 26-27 0-14-11-26-26-26z m26 231c0 14-11 26-26 26h-738c-14 0-26-12-26-26s12-27 26-27h738c15 0 26 12 26 27z m0 204c0 15-11 26-26 26h-648c-14 0-26-11-26-26s12-26 26-26h648c15 0 26 11 26 26z m0 204c0 15-11 27-26 27h-888c-14 0-26-12-26-27s12-26 26-26h888c15 0 26 12 26 26z m0 205c0 14-11 26-26 26h-738c-14 0-26-12-26-26s12-27 26-27h738c15 0 26 12 26 27z" horiz-adv-x="1000" />

<glyph glyph-name="alineado-izquierda" unicode="&#xe816;" d="M644-85h-588c-14 0-26 12-26 26 0 15 12 27 26 27h588c15 0 26-12 26-27 0-14-11-26-26-26z m176 231c0 14-11 26-26 26h-738c-14 0-26-12-26-26s12-27 26-27h738c15 0 26 12 26 27z m-90 204c0 15-11 26-26 26h-648c-14 0-26-11-26-26s12-26 26-26h648c15 0 26 11 26 26z m240 204c0 15-11 27-26 27h-888c-14 0-26-12-26-27 0-14 12-26 26-26h888c15 0 26 12 26 26z m-150 205c0 14-11 26-26 26h-738c-14 0-26-12-26-26s12-27 26-27h738c15 0 26 12 26 27z" horiz-adv-x="1000" />

<glyph glyph-name="bold" unicode="&#xe817;" d="M289 609c31 6 124 11 184 11 73 0 118-7 157-30 37-20 63-56 63-104 0-47-27-91-87-113v-2c61-16 106-62 106-130 0-48-23-86-56-113-38-31-132-48-238-48-59 0-103 4-129 8v521z m118-203h69c63 0 97 26 97 65 0 40-31 62-85 62-26 0-70-2-81-3v-124z m0-235c12-2 56-2 76-2 55 0 103 20 103 76 0 54-48 75-108 75h-71v-149z" horiz-adv-x="1000" />

<glyph glyph-name="borrador" unicode="&#xe818;" d="M820 615l-159 159c-11 10-24 15-38 15h-378c-23 0-42-8-57-23-15-16-23-34-23-57v-718c-1-22 7-41 23-56 16-16 35-24 57-24h510c23 0 42 8 57 24 16 15 23 34 23 56v586c0 14-5 27-15 38z m-38-624c0-9-2-15-7-20-5-5-12-7-20-7h-510c-9 0-15 2-20 7-4 5-7 12-7 20v718c0 8 2 14 7 19 5 5 12 8 20 8h351v-107c0-22 8-40 23-56 16-15 34-23 57-23h106v-559z m-107 586c-13-1-25 4-36 15-11 11-16 23-16 37v107l159-159h-107z" horiz-adv-x="1000" />

<glyph glyph-name="borrar" unicode="&#xe819;" d="M134 524v58c1 21 9 39 25 54 15 14 34 21 55 21h80v26c0 22 8 41 23 57 15 16 34 24 56 23h266c22 0 41-8 56-23s24-34 24-57v-26h79c21 0 40-7 56-21 15-15 24-32 24-54v-58c0-15-5-27-16-37-11-10-23-16-37-16v-452c0-30-11-55-31-76-20-20-45-30-75-30h-425c-30 0-55 10-76 30-20 21-30 46-30 76v452c-15 0-27 5-38 16-10 11-15 23-16 37z m54 0h637v53c0 8-3 14-7 19-5 6-11 8-20 7h-584c-8 0-14-2-20-7-5-4-7-11-6-19v-53z m52-505c0-14 6-27 17-37 10-11 23-17 37-17h425c14 0 26 6 37 17 10 10 15 23 16 37v452h-532v-452z m54 26v347c0 7 2 13 7 18 4 5 11 8 19 8h53c8 0 15-3 20-8 5-5 7-11 7-18v-347c0-7-2-13-7-18-5-5-12-8-20-8h-53c-8 0-14 3-19 8-5 5-8 11-7 18z m26 0h53v347h-53v-347z m27 612h319v26c0 8-3 15-8 20-5 5-11 7-19 7h-266c-7 0-14-3-19-7-5-5-7-11-7-20v-26z m106-612v347c0 7 3 13 8 18 5 5 11 8 18 8h54c7 0 14-3 19-8 5-5 7-11 7-18v-347c0-7-2-13-7-18-5-5-12-8-19-8h-54c-7 0-13 3-18 8-5 5-8 11-8 18z m26 0h54v347h-54v-347z m134 0v347c0 7 2 13 7 18 4 5 11 8 19 8h53c8 0 14-3 20-8 5-5 7-11 7-18v-347c0-7-2-13-7-18-6-5-12-8-20-8h-53c-8 0-14 3-19 8-5 5-8 11-7 18z m26 0h53v347h-53v-347z" horiz-adv-x="1000" />

<glyph glyph-name="buscar" unicode="&#xe81a;" d="M75 18c0 26 9 49 28 68l221 221c-24 46-37 96-37 149 0 88 31 163 93 226 62 63 137 94 226 93 89 0 165-32 227-93s92-138 92-227c0-89-31-164-92-225-62-61-138-92-227-93-53 0-103 13-149 37l-221-221c-19-19-41-28-68-28-26 0-48 9-66 27s-27 40-27 66z m47 0c0-12 4-23 13-33 9-9 20-14 33-13 13 0 25 5 34 14l215 214c-26 19-48 41-67 67l-214-215c-10-9-14-21-14-34z m219 438c0-73 26-135 77-188 52-52 115-78 188-77 74 1 137 26 188 77 52 51 78 114 78 188 0 75-26 137-78 188-51 51-114 77-188 78-73 0-136-26-188-78-51-52-77-115-77-188z m79 0c0 51 19 95 55 131 37 37 81 55 131 56 9 0 14-5 14-14 0-9-5-14-14-14-44 0-82-15-113-46-31-30-46-68-46-113 0-9-4-13-13-13-9 0-14 4-14 13z" horiz-adv-x="1000" />

<glyph glyph-name="campana" unicode="&#xe81b;" d="M865 363v208c0 14-5 27-15 39l-159 159c-11 10-24 15-38 15h-438c-23-1-42-9-57-24-15-15-23-34-23-56v-341c-33 23-60 4-60-17v-324c0-30 10-55 30-75 21-21 46-31 76-31h638c30 0 55 10 76 31 20 20 30 45 30 75v324c0 21-27 40-60 17z m-212 367l159-159h-107c-13 0-25 5-36 16-11 10-16 23-16 37v106z m-458-7c5 5 12 7 20 7h411v-106c0-22 8-41 23-56 16-15 35-23 57-23h106v-222l-129-97h-366l-129 97v381c0 7 2 14 7 19z m452-524l-116-87c-9-7-19-10-31-10s-22 3-31 10l-116 87h294z m-519 136l186-140-186-139v279z m728-350c-10-10-22-16-37-16h-638c-15 0-27 6-37 16-10 10-16 23-16 37l208 156 116-86c14-11 30-17 48-17s34 6 49 17l115 86 208-156c0-14-5-27-16-37z m16 71l-186 139 186 140v-279z m-604 383h126c7-1 13 1 19 6 5 6 7 12 7 20v159c0 9-3 15-7 20-5 4-11 6-19 6h-126c-8 1-14-1-19-6-5-6-8-12-8-20v-159c0-8 3-15 8-20 5-4 11-6 19-6z m27 159h72v-107h-72v107z m-40-239h490c9-1 14 3 14 13 0 9-5 13-14 13h-490c-9 0-14-4-14-13 0-9 5-13 14-13z m231 159h74c8 0 13 4 13 13 0 9-5 14-13 14h-74c-8 0-12-5-12-14 0-9 4-13 12-13z m-231-239h490c9 0 14 5 14 13 0 9-5 13-14 13h-490c-9 0-14-4-14-13 0-9 5-13 14-13z m231 160h259c9-1 14 3 14 12 0 10-5 14-14 14h-259c-8 0-12-4-12-14 0-8 4-12 12-12z m0 159h74c8 0 13 5 13 13 0 9-5 13-13 13h-74c-8 0-12-4-12-13 0-9 4-13 12-13z" horiz-adv-x="1000" />

<glyph glyph-name="campanas" unicode="&#xe81c;" d="M79 222c-11 36-11 69 1 99 12 31 32 50 61 59l235 74c34 11 62 33 85 67 22 34 38 76 46 126l1 0c13 70 44 113 94 128 55 18 109-4 163-65 53-61 95-139 126-233 30-95 40-183 30-264-10-82-42-131-96-147-50-16-100 1-150 51l-2 0c-69 70-137 99-204 85-3-2-5-3-6-3l0-2c-3-2-5-5-6-8-1-1-1-3-1-4-1-4-1-7 0-11l34-107c1-5 8-10 20-17 11-7 19-16 22-25l8-27c4-13 3-26-5-39-7-13-17-22-30-27l-102-32c-13-4-27-3-40 5-14 7-22 17-26 30l-49 157c-5 14-13 24-27 31-13 7-27 8-40 3-29-9-57-4-84 14-27 18-46 46-58 82z m51 16c7-22 18-38 32-50 14-11 29-15 43-10l177 55c-23 15-39 38-49 69-9 30-9 58 2 83l-178-56c-13-4-23-15-29-33-5-18-5-37 2-58z m178-84c14-13 24-28 30-46l49-157 102 31-7 23-5 3c-20 13-32 27-37 43l-34 106c-2 9-3 18-3 27l-95-30z m50 156c7-22 18-39 32-50 14-12 29-15 43-11l6 2c47 15 96 11 148-10-20 38-37 79-51 124-13 44-23 87-29 130-30-47-69-78-115-92l-7-2c-13-4-23-15-29-33-5-18-5-38 2-58z m228 71c8-25 18-50 29-75l72 23c13 4 23 15 28 33 6 18 5 37-2 59-7 21-18 38-31 49-14 11-28 15-43 10l-71-22c4-26 11-52 18-77z m52-124c27-49 55-87 86-113 31-27 59-36 85-27 35 11 55 50 62 116 6 67-4 143-31 228-28 84-62 152-104 203-43 51-82 71-118 60-26-8-44-31-54-70-10-39-12-87-6-143l65 21c28 8 56 4 84-14 27-18 46-45 57-81 11-36 10-69-1-100-11-31-31-51-60-59l-65-21z" horiz-adv-x="1000" />

<glyph glyph-name="cancelada" unicode="&#xe81d;" d="M975 381c0 48-18 90-52 126-31 31-66 48-107 52v12c0 15-5 27-16 39l-159 159c-11 10-24 15-38 15h-438c-22-1-41-9-57-24-15-15-23-34-23-56v-341c-32 23-60 4-60-17v-324c0-30 11-55 31-75 20-21 46-31 76-31h637c30 0 56 10 76 31 20 20 31 45 31 75v198c17 8 32 20 47 35 34 36 52 78 52 126z m-372 349l159-159h-106c-14 0-26 5-37 16-11 10-16 23-16 37v106z m-464-26c-1 7 2 14 7 19 5 5 11 7 19 7h412v-106c0-22 7-41 23-56 15-15 34-23 57-23h67c-20-9-38-21-55-38-13-13-23-27-31-42h-201c-9 0-13-4-13-14 0-8 4-12 13-12h189c-5-17-8-35-9-54h-412c-9 0-13-4-13-13 0-9 4-13 13-13h413c3-20 7-37 15-54h-428c-9 0-13-4-13-13 0-9 4-13 13-13h443c7-9 13-17 21-25 1 0 1 0 1 0l-36-28h-367l-128 97v381z m459-505l-116-87c-9-7-20-10-31-10-12 0-23 3-32 10l-116 87h295z m-519 136l185-140-185-139v279z m728-350c-10-10-23-16-38-16h-637c-15 0-28 6-38 16-10 10-15 23-15 37l207 156 116-86c15-11 31-17 49-17 17 0 33 6 48 17l116 86 207-156c0-14-5-27-15-37z m15 71l-185 139 55 41c30-21 64-33 104-34 9 0 18 1 26 2v-148z m-15 191c-37-3-70 8-98 32-29 24-44 55-47 91-3 37 7 70 32 98 24 29 55 44 91 47 37 2 70-9 98-32 29-24 45-55 47-92 3-37-8-70-32-98-24-28-55-43-91-46z m14 134l46 46c4 4 6 8 6 13 0 5-2 10-6 13s-8 6-13 6-10-2-13-5l-46-46-45 45c-3 3-8 5-13 5-5 0-10-2-13-5-4-4-6-9-6-14 0-5 2-9 5-13l45-45-44-44c-4-4-6-9-6-14 0-5 2-9 5-13 4-4 8-6 14-6 5 0 9 2 13 6l45 45 46-47c4-3 8-5 13-5s10 2 13 6c4 3 6 8 6 13 0 5-2 9-6 13l-46 46z m-384 137h73c9 0 13 4 13 13 0 9-4 14-13 14h-73c-9 0-13-5-13-14 0-9 4-13 13-13z m-219-79h126c8-1 14 1 19 6 5 6 8 12 8 20v159c-1 9-3 15-8 20-5 4-11 6-19 6h-126c-7 1-14-1-19-6-5-6-7-12-7-20v-159c0-8 2-15 7-20 5-4 12-6 19-6z m27 159h73v-107h-73v107z m192 0h73c9 0 13 5 13 13 0 9-4 13-13 13h-73c-9 0-13-4-13-13 0-9 4-13 13-13z" horiz-adv-x="1000" />

<glyph glyph-name="cancelar" unicode="&#xe81e;" d="M714 133c-7-8-17-12-29-12-11 0-21 4-29 12l-157 157-157-157c-8-8-18-12-29-12-12 0-21 4-29 12-8 8-12 17-12 29 0 11 4 21 12 29l157 158-159 159c-8 8-12 18-12 29s4 22 12 29c8 8 17 12 29 12 11 0 21-4 29-12l160-159 160 161c8 7 18 11 29 11 11 0 21-4 29-11 8-9 12-19 12-30 0-11-4-21-12-29l-160-161 157-157c7-8 11-18 11-29 0-12-4-21-12-29z m-214-237c-250 0-454 204-454 454 0 250 204 454 454 454 250 0 454-204 454-454 0-250-204-454-454-454z m0 855c-221 0-401-180-401-401s180-401 401-401 401 180 401 401-180 401-401 401z" horiz-adv-x="1000" />

<glyph glyph-name="celular" unicode="&#xe81f;" d="M208 5v690c0 22 7 41 23 57 15 16 34 24 56 23h426c22 0 40-7 56-23 15-15 23-34 24-57v-690c0-22-8-41-24-57-16-16-35-24-56-23h-426c-22 0-41 7-56 23-16 15-24 34-23 57z m53 638h478v52c0 8-3 15-8 20-5 5-11 7-18 7h-426c-7 0-14-3-19-7-5-5-7-11-7-20v-52z m0-558h478v530h-478v-530z m0-80c0-8 2-15 7-20 4-5 11-8 20-8h425c7 0 13 3 18 8 5 5 8 12 8 20v53h-478v-53z m185 678c0 8 5 12 14 12h80c9 0 13-4 13-12 0-9-4-14-13-14h-80c-9 0-14 4-14 14z m28-665c0 9 4 13 12 13h27c9 0 13-4 13-13 0-10-4-14-13-13h-27c-8 0-12 4-12 13z" horiz-adv-x="1000" />

<glyph glyph-name="check" unicode="&#xe820;" d="M440 280l-107 87c-8 8-18 12-29 12s-21-4-29-12c-8-7-12-17-12-29 0-11 4-21 12-29l136-116c8-8 18-12 29-12s21 4 29 12l256 256c8 8 12 18 12 29 0 12-4 22-12 29-8 8-17 12-29 12s-21-4-29-12l-227-227z" horiz-adv-x="1000" />

<glyph glyph-name="chequear" unicode="&#xe821;" d="M820 615l-159 159c-11 10-24 15-38 15h-378c-23 0-42-8-57-23-15-16-23-34-23-57v-718c-1-22 7-41 23-57 16-15 35-23 57-23h510c23 0 42 8 57 23 16 16 23 35 23 57v586c0 14-5 27-15 38z m-38-624c0-9-2-15-7-20-5-5-12-7-20-7h-510c-9 0-15 2-20 7-4 5-7 12-7 20v718c0 8 2 14 7 19 5 5 12 8 20 8h351v-107c0-22 8-40 23-56 16-15 35-23 57-23h106v-559z m-107 586c-13-1-25 4-36 15-11 11-16 23-16 37v107l159-159h-107z m-17-196c10 10 27 10 37 0 10-10 10-27 0-37l-216-216c-5-5-12-8-18-8-7 0-14 3-19 8l-87 87c-10 11-10 27 0 38 10 10 27 10 37 0l69-69 197 197z" horiz-adv-x="1000" />

<glyph glyph-name="compartir" unicode="&#xe822;" d="M730 325c127 0 231 104 231 231s-104 232-231 232-232-104-232-232c0-36 9-71 25-102l-187-107c-30 43-79 71-134 71-90 0-163-73-163-163 0-90 73-163 163-163 60 0 112 33 140 81l206-98c-5-13-7-26-7-40 0-68 55-123 122-123 67 0 122 55 122 123s-55 122-122 122c-44 0-82-23-103-58l-206 98c7 18 10 38 10 58 0 24-5 47-15 68l187 107c41-63 113-105 194-105z m-67-221c38 0 70-31 70-69 0-39-32-70-70-70-38 0-69 31-69 70 0 38 31 69 69 69z m-461 41c-61 0-110 49-110 110 0 60 49 110 110 110 60 0 110-50 110-110 0-61-50-110-110-110z m528 590c98 0 178-80 178-179s-80-178-178-178c-99 0-179 80-179 178s80 179 179 179z" horiz-adv-x="1000" />

<glyph glyph-name="contactos" unicode="&#xe823;" d="M914 739c-14 13-31 20-51 20h-628c-20 1-37-6-51-20-13-14-20-31-20-51v-115h-54c-7 0-13-3-18-8-5-5-8-11-8-18 0-8 3-14 8-19 5-5 11-8 18-8h54v-160h-54c-7 0-13-2-18-7-5-5-8-12-8-19 0-7 3-14 8-19 5-5 11-7 18-7h54v-160h-54c-7 0-13-3-18-8-5-5-8-11-8-19 0-7 3-13 8-18 5-5 11-8 18-8h54v-115c-1-20 6-37 20-51 14-14 32-20 51-20h628c20-1 37 6 51 20 13 14 20 31 20 51v708c1 20-6 37-20 51z m-196-777h-483c-5 0-10 1-13 5-4 3-5 8-5 13v115h53c8 0 14 3 19 8 5 5 8 11 8 18 0 8-3 14-8 19-5 5-11 8-19 8h-53v160h53c8 0 14 2 19 7 5 5 8 12 8 19 0 7-3 14-8 19-5 5-11 7-19 7h-53v160h53c8 0 14 3 19 8 5 5 8 11 8 19 0 7-3 13-8 18-5 5-11 8-19 8h-53v115c0 6 1 10 5 13 3 3 8 5 13 5h483v-744z m164 18c0-6-2-11-6-13-3-3-7-5-13-5h-118v107h137v-89z m0 115h-137v53h137v-53z m0 80h-137v53h137v-53z m0 79h-137v54h137v-54z m0 80h-137v55c2-1 4-1 6-1h131v-54z m0 80h-131c-2 0-4 0-6-1v55c2-1 4-1 6-1h131v-53z m0 80h-131c-2 0-4-1-6-1v55c2-1 4-1 6-1h131v-53z m0 79h-131c-2 0-4 0-6-1v134h118c6 0 10-1 13-5 4-3 6-8 6-13v-115z" horiz-adv-x="1000" />

<glyph glyph-name="creditos" unicode="&#xe824;" d="M516 487c-3 4-5 9-5 14 0 5 2 9 5 13 4 4 9 6 14 6h63v64c0 5 2 10 6 14 3 3 8 5 13 5 5 0 10-2 13-5 4-4 6-8 6-14v-65h65c5 0 10-2 13-5 4-4 6-8 6-13 0-6-2-10-6-14-3-3-8-5-13-5h-65v-63c0-6-2-10-6-14-4-3-8-5-13-5-6 0-10 2-14 5-3 4-5 8-5 14v63h-63c-5 0-10 2-14 5z m409-16v-345c0-30-10-55-30-75-21-21-46-31-76-31h-638c-30 0-55 10-75 31-21 20-31 45-31 75v345c0 29 10 54 31 75 20 21 45 32 75 32h270c8 18 20 34 35 49 35 35 77 53 127 53 49 1 92-17 126-53 15-15 27-32 35-49h45c30 0 55-11 76-32 20-21 30-46 30-75z m-446 20c3-37 18-68 47-92 28-24 61-35 98-32 36 3 67 18 91 46 24 29 35 61 32 98-3 38-18 68-47 92-29 24-61 35-98 32-37-2-67-18-91-46-25-29-35-62-32-98z m-351-332l186 140-186 139v-279z m744-33l-208 156-115-86c-15-11-31-17-49-17-18 0-34 6-48 17l-116 86-208-156c0-15 6-27 16-37 10-10 22-16 37-16h638c14 0 27 5 37 16 11 11 16 23 16 37z m0 312l-186-139 186-140v279z m0 33c0 15-5 27-16 38-10 11-22 16-37 15h-29c1-7 2-15 2-23 0-48-18-90-53-126-34-36-77-54-126-52-50 1-92 18-127 52-35 33-52 75-52 126 0 8 1 16 2 23h-255c-14 0-26-5-37-15-11-10-16-23-16-38l208-156 23-16 110-84c9-6 19-10 31-10 12 0 22 4 31 10l341 256z" horiz-adv-x="1000" />

<glyph glyph-name="deleteusuarios" unicode="&#xe825;" d="M840 12c-42 63-160 193-258 211 48 51 82 112 101 183 6 27 9 56 10 88 0 32-6 68-20 107-13 39-32 72-56 99-48 50-111 75-190 75h0c-79 0-142-25-189-75-24-27-43-60-56-99-14-39-21-75-20-107 1-32 4-61 9-88 20-71 54-133 102-183-98-18-217-148-258-211-14-21-19-34-11-55 3-9 9-17 18-23 10-6 21-9 33-9h745c12 0 23 3 32 9 10 6 16 14 19 23 8 21 3 34-11 55z m-607 373c-17 50-21 100-14 149 9 54 30 100 66 139 35 38 83 57 142 57 60 0 108-19 143-57 35-39 57-85 66-139 7-49 2-99-14-149-16-50-44-95-82-134l-8-10c-32-31-67-46-105-46-37 0-72 15-104 46l-9 10c-38 39-65 84-81 134z m-178-408c43 53 137 186 228 203l66 11c26-14 52-22 78-22s52 8 79 22l66-11c90-17 185-150 228-203h-745z m669 211c-6 6-9 13-9 21 0 9 3 16 9 22l73 73-73 73c-6 6-9 13-9 22 0 9 3 16 9 22 6 6 13 9 22 9 8 0 16-3 22-9l73-73 75 75c6 6 13 9 22 8 8 0 15-3 21-9 6-6 9-13 9-21 1-9-2-16-8-22l-76-75 76-76c6-6 9-13 9-21s-3-16-9-22c-7-6-14-9-22-9s-16 3-22 9l-76 76-72-73c-7-6-14-10-22-10-9 0-16 4-22 10z" horiz-adv-x="1000" />

<glyph glyph-name="descargar" unicode="&#xe826;" d="M820 615l-159 159c-11 10-24 15-38 15h-378c-23 0-42-8-57-23-15-16-23-34-23-57v-718c-1-22 7-41 23-56 16-16 35-24 57-24h510c23 0 42 8 57 24 16 15 23 34 23 56v586c0 14-5 27-15 38z m-38-624c0-9-2-15-7-20-5-4-12-7-20-7h-510c-9 0-15 2-20 7-4 5-7 12-7 20v718c0 8 2 14 7 19 5 5 12 8 20 8h351v-107c0-22 8-40 23-56 16-15 35-23 57-23h106v-559z m-107 586c-13-1-25 4-36 15-11 11-16 23-16 37v107l159-159h-107z m-67-312h61c11 0 20-6 24-15s2-21-6-28l-169-169c-5-5-11-8-18-8-7 0-13 3-18 8l-169 169c-7 7-10 18-6 28 4 9 14 15 24 15h61v123c0 14 12 25 26 25h164c14 0 26-11 26-25v-123z" horiz-adv-x="1000" />

<glyph glyph-name="editar" unicode="&#xe827;" d="M75 18c0 2 0 4 1 6 0 3 1 5 1 7 0 2 0 5 1 7 0 2 0 4 0 5v2l63 227c6 17 15 32 27 45l276 275v2l129 131c34 33 76 50 124 50 61 0 113-23 159-68 42-42 64-90 69-145 3-55-13-101-50-137l-405-409c-13-13-29-22-46-27l-224-59-9-3c-2 0-4-1-7-1-3 0-6 0-9 0-2-1-5-1-7-1-26 0-48 9-66 27-18 18-27 40-27 66z m54 0c0-11 3-21 11-29 7-8 16-12 28-12 3 0 9 2 18 4l98 27c2 33-10 63-36 90-26 25-56 37-90 36l-27-101c-2-8-2-13-2-15z m37 142c38-1 71-15 100-44 29-28 44-62 45-102l98 26 9 5c24 26 33 59 29 98-3 38-21 72-51 102-29 28-62 45-98 51-37 5-68-1-95-21-4-5-7-11-10-18l-27-97z m111 192c26-1 51-7 77-17l251 251c-50 12-91 3-123-28l-205-206z m102-30c21-11 40-24 55-38 12-13 23-28 35-47l252 254c-9 18-20 33-33 47-17 16-36 29-57 38l-252-254z m103-110c10-23 16-46 18-69v-21l206 208v2c35 34 43 78 26 133l-250-253z m86 432c60 0 113-22 158-68 40-41 62-88 67-141v-19l44 47c25 26 37 57 35 95-3 41-21 79-53 111-36 35-76 53-122 53-34 0-62-12-85-35l-44-43z" horiz-adv-x="1000" />

<glyph glyph-name="eliminar" unicode="&#xe828;" d="M654 193c-7-8-17-12-29-12s-21 4-29 12l-97 97-97-97c-8-8-18-12-29-12-12 0-21 4-29 12s-12 17-12 29c0 11 4 21 12 29l97 98-99 99c-8 8-12 18-12 29 0 12 4 22 12 29 8 8 17 12 29 12s21-4 29-12l100-99 100 100c8 8 18 12 29 12s21-4 29-12c8-8 12-18 12-29 0-11-4-21-12-29l-100-101 96-97c8-8 12-18 12-29 0-12-4-21-12-29z" horiz-adv-x="1000" />

<glyph glyph-name="exportar-lista" unicode="&#xe829;" d="M605-143c23 1 42 9 57 24 16 15 23 34 23 56v27h27c23 1 42 9 57 24 15 15 23 34 23 56v12c110 25 193 124 193 242s-83 216-193 241v91c0 14-5 27-15 38l-159 159c-12 11-24 16-39 16h-377c-23-1-42-9-57-24-16-15-23-34-23-56v-27h-27c-23-1-42-9-57-24-15-15-23-34-23-56v-719c-1-21 7-40 23-56 16-16 35-24 57-24h510z m-26 932l159-159h-106c-14 0-26 5-36 15-11 11-17 24-17 38v106z m53-852c0-8-2-15-7-19-5-5-12-7-20-7h-510c-9-1-15 2-20 7-4 5-7 11-7 19v719c0 7 2 14 7 19 5 5 12 7 20 7h27v-638c-1-21 7-40 23-56 16-16 35-24 57-24h430v-27z m106 107c1-8-1-15-6-19-6-5-12-7-20-7h-510c-9-1-15 1-20 7-5 5-7 11-7 19v719c0 7 2 13 7 19 5 5 12 7 20 7h351v-106c0-22 8-41 23-56 15-16 34-23 57-23h105v-58c0 0 0 0-1 0-69 0-131-28-176-74h-295c-14 0-26-11-26-26 0-15 12-26 26-26h255c-16-29-27-61-31-96h-224c-14 0-26-12-26-26s12-27 26-27h224c4-34 15-66 31-95h-255c-14 0-26-12-26-26 0-15 12-27 26-27h295c45-45 107-74 176-74 0 0 1 1 1 1v-6z m-1 58c-108 0-195 88-195 196 0 107 87 195 195 195s196-88 196-195c0-108-88-196-196-196z m97 214c10-10 10-27 0-37l-110-110c-5-5-12-7-18-7-4 0-7 0-10 2-10 4-17 13-17 24v219c0 11 7 21 17 25 9 4 21 2 28-6l110-110z" horiz-adv-x="1000" />

<glyph glyph-name="f-down" unicode="&#xe82a;" d="M500 280l-227 227c-8 8-18 12-29 12-12 0-21-4-29-12-8-7-12-17-12-29 0-11 4-21 12-29l256-256c8-8 18-12 29-12s21 4 29 12l256 256c8 8 12 18 12 29 0 12-4 22-12 29-8 8-17 12-29 12-11 0-21-4-29-12l-227-227z" horiz-adv-x="1000" />

<glyph glyph-name="fecha" unicode="&#xe82b;" d="M76-21v628c0 20 7 37 20 51 14 14 31 21 51 20h115v54c0 7 3 13 8 19 5 5 11 7 18 7 8 0 14-2 19-7 5-6 8-12 8-19v-54h160v54c0 7 2 13 7 19 5 5 12 7 19 7 7 0 14-2 19-7 5-6 7-12 7-19v-54h160v54c0 7 3 13 8 19 5 5 11 7 19 7 7 0 13-2 18-7 5-6 8-12 8-19v-54h115c20 0 37-7 51-20 14-14 21-31 20-51v-628c0-20-7-37-20-51-14-14-31-21-51-20h-708c-20 0-36 7-51 20-14 14-21 31-20 51z m53 0c0-5 2-10 5-13 3-4 7-6 13-6h708c5 0 10 2 13 6 4 3 5 8 5 13v628c0 5-2 10-5 13-2 4-7 6-13 6h-115v-54c0-7-3-14-8-19-5-5-11-7-18-7-8 0-14 2-19 7-5 5-8 12-8 19v54h-160v-54c0-7-2-14-7-19-5-5-12-7-19-7-7 0-14 2-19 7-5 5-7 12-7 19v54h-160v-54c0-7-3-14-8-19-5-5-11-7-19-7-7 0-13 2-18 7-5 5-8 12-8 19v54h-115c-5 0-10-2-13-6-4-3-5-8-5-13v-628z m133 380v80h106v-80h-106z m0-132v80h106v-80h-106z m0-133v80h106v-80h-106z m186 265v80h107v-80h-107z m0-132v80h107v-80h-107z m0-133v80h107v-80h-107z m186 265v80h106v-80h-106z m0-132v80h106v-80h-106z m0-133v80h106v-80h-106z" horiz-adv-x="1000" />

<glyph glyph-name="filtros" unicode="&#xe82c;" d="M854 774h-708c-14 0-26-12-26-26v-121c0-7 3-14 8-19l276-277v-379c0-9 6-18 14-23 4-2 8-3 13-3 5 0 10 1 14 4l139 94c7 5 12 13 12 22v285l12 12c26-31 65-49 108-49 78 0 142 63 142 141 0 43-19 82-50 108l64 65c5 5 8 12 8 19v121c0 14-12 26-26 26z m-27-53v-81h-654v81h654z m-276-360c-5-5-8-12-8-19v-282l-86-58v340c0 7-3 14-8 19l-252 252h606l-252-252z m254 74c0-49-40-89-89-89-28 0-54 13-70 35l124 125c22-17 35-42 35-71z" horiz-adv-x="1000" />

<glyph glyph-name="finalizada" unicode="&#xe82d;" d="M975 381c0 48-18 90-52 126-31 31-66 48-107 52v12c0 15-5 27-16 39l-159 159c-11 10-24 15-38 15h-438c-22-1-41-9-57-24-15-15-23-34-23-56v-341c-32 23-60 4-60-17v-324c0-30 11-55 31-75 20-21 46-31 76-31h637c30 0 56 10 76 31 20 20 31 45 31 75v198c17 8 32 20 47 35 34 36 52 78 52 126z m-372 349l159-159h-106c-14 0-26 5-37 16-11 10-16 23-16 37v106z m-464-26c-1 7 2 14 7 19 5 5 11 7 19 7h412v-106c0-22 7-41 23-56 15-15 34-23 57-23h67c-20-9-38-21-55-38-13-13-23-27-31-42h-201c-9 0-13-4-13-14 0-8 4-12 13-12h189c-5-17-8-35-9-54h-412c-9 0-13-4-13-13 0-9 4-13 13-13h413c3-20 7-37 15-54h-428c-9 0-13-4-13-13 0-9 4-13 13-13h443c7-9 13-17 21-25 1 0 1 0 1 0l-36-28h-367l-128 97v381z m459-505l-116-87c-9-7-20-10-31-10s-23 3-32 10l-116 87h295z m-519 136l185-140-185-139v279z m728-350c-10-10-23-16-38-16h-637c-15 0-28 6-38 16-10 10-15 23-15 37l207 156 116-86c15-11 31-17 49-17 17 0 33 6 48 17l116 86 207-156c0-14-5-27-15-37z m15 71l-185 139 55 41c30-21 64-33 104-34 9 0 18 1 26 2v-148z m-15 191c-37-3-70 8-98 32-29 24-44 55-47 91-3 37 7 70 32 98 24 29 55 44 91 47 37 2 70-9 98-32 29-24 45-55 47-92 3-37-8-70-32-98-24-28-55-43-91-46z m76 211c-5 0-9-2-13-5l-104-104-46 45c-4 4-8 6-13 6s-10-2-13-6c-4-4-6-8-6-13 0-6 2-10 5-14l60-58c4-4 8-6 13-6s10 2 13 5l118 118c4 4 5 8 5 13 0 5-2 10-5 14-4 3-8 5-14 5z m-446 60h73c9 0 13 4 13 13 0 9-4 14-13 14h-73c-9 0-13-5-13-14 0-9 4-13 13-13z m-219-79h126c8-1 14 1 19 6 5 6 8 12 8 20v159c-1 9-3 15-8 20-5 4-11 6-19 6h-126c-7 1-14-1-19-6-5-6-7-12-7-20v-159c0-8 2-15 7-20 5-4 12-6 19-6z m27 159h73v-107h-73v107z m192 0h73c9 0 13 5 13 13 0 9-4 13-13 13h-73c-9 0-13-4-13-13 0-9 4-13 13-13z" horiz-adv-x="1000" />

<glyph glyph-name="f-left" unicode="&#xe82e;" d="M571 350l-228-227c-8-8-12-18-12-29 0-12 4-21 12-29 8-8 17-12 29-12 11 0 21 4 29 12l256 256c8 8 12 18 12 29s-4 21-12 29l-256 256c-8 8-18 12-29 12-12 0-21-4-29-12-8-8-12-17-12-29 0-11 4-21 12-29l228-227z" horiz-adv-x="1000" />

<glyph glyph-name="f-right" unicode="&#xe82f;" d="M429 350l228 227c8 8 12 18 12 29 0 12-4 21-12 29-7 8-17 12-29 12-11 0-21-4-29-12l-256-256c-8-8-12-18-12-29 0-11 4-21 12-29l256-256c8-8 18-12 29-12 12 0 22 4 29 12 8 8 12 17 12 29 0 11-4 21-12 29l-228 227z" horiz-adv-x="1000" />

<glyph glyph-name="f-top" unicode="&#xe830;" d="M500 421l227-228c8-8 18-12 29-12 12 0 21 4 29 12 8 8 12 17 12 29 0 11-4 21-12 29l-256 256c-8 8-18 12-29 12s-21-4-29-12l-256-256c-8-8-12-18-12-29 0-12 4-21 12-29 8-8 17-12 29-12 11 0 21 4 29 12l227 228z" horiz-adv-x="1000" />

<glyph glyph-name="guardar" unicode="&#xe831;" d="M659 700h-67c-7 0-13-6-13-13v-139c0-8 6-14 13-14h67c8 0 14 6 14 14v139c0 7-6 13-14 13z m-13-139h-40v112h40v-112z m-339-402h386c8 0 14 6 14 13 0 8-6 14-14 14h-386c-7 0-14-6-14-14 0-7 7-13 14-13z m0-103h386c8 0 14 6 14 13s-6 14-14 14h-386c-7 0-14-6-14-14s7-13 14-13z m644 537l-178 178c-5 5-12 8-19 8h-577c-75 0-136-61-136-136v-586c0-75 61-136 136-136h646c75 0 136 61 136 136v517c0 7-3 14-8 19z m-658 132h414v-216h-414v216z m475-751h-536v297h536v-297z m138 83c0-46-37-83-83-83h-27v311c0 7-7 13-14 13h-564c-7 0-13-6-13-13v-311h-28c-46 0-83 37-83 83v586c0 46 37 83 83 83h89v-231c0-7 6-13 13-13h442c7 0 14 6 14 13v231h8l163-163v-506z" horiz-adv-x="1000" />

<glyph glyph-name="guardaryvolver" unicode="&#xe832;" d="M958 601c-10 24-24 45-42 63-11 11-24 21-37 29-14 8-29 15-44 20l32 18c4 3 7 7 9 12 1 5 1 10-2 15-3 5-7 9-12 10-5 1-11 1-16-2l-78-45c-3-2-6-4-8-8-2-3-4-7-4-11 0-2 1-4 1-6 1-2 1-3 3-5l45-79c3-5 7-9 12-10 6-1 11 0 16 3 4 2 7 6 9 12 1 5 0 10-2 15l-27 46c14-4 28-9 41-16 12-8 24-16 34-27 14-14 25-30 34-50 8-19 12-39 12-61 0-5 2-10 5-14 4-4 9-6 14-6 6 0 11 2 15 6 4 4 6 9 6 14 0 27-5 53-16 77z m-377 4h-57c-8 0-14-7-14-14v-120c0-8 6-14 14-14h57c8 0 14 6 14 14v120c0 7-6 14-14 14z m-13-121h-31v93h31v-93z m-291-352h334c7 0 13 6 13 14 0 7-6 14-13 14h-334c-8 0-14-7-14-14 0-8 6-14 14-14z m0-89h334c7 0 13 6 13 14 0 7-6 14-13 14h-334c-8 0-14-7-14-14 0-8 6-14 14-14z m405 624c-5 5-11 7-18 7h-499c-67 0-122-54-122-121v-507c0-67 55-121 122-121h558c67 0 121 54 121 121v448c0 7-2 13-7 18l-155 155z m-416-45h355v-183h-355v183z m408-644h-460v251h460v-251z m118 68c0-37-31-68-69-68h-22v265c0 8-6 14-13 14h-488c-8 0-14-6-14-14v-265h-21c-38 0-69 31-69 68v507c0 38 31 69 69 69h74v-197c0-7 6-13 14-13h382c7 0 13 6 13 13v197h5l139-139v-437z" horiz-adv-x="1000" />

<glyph glyph-name="historial" unicode="&#xe833;" d="M524 313c11 0 20 4 27 10l77 91 98 122c4 6 3 12-2 18-5 6-11 7-18 2l-210-174c-9-7-13-17-13-29-1-11 3-20 11-28 9-8 19-12 30-12z m12 476c-15 0-27-12-27-26 0-10 5-18 13-23v-104c0-8 6-14 14-14 7 0 13 6 13 14v100c202-7 366-170 373-372h-101c-7 0-13-6-13-14 0-7 6-14 13-14h101c-7-202-171-365-373-372v100c0 8-6 14-13 14-8 0-14-6-14-14v-100c-204 7-368 173-372 378l42-43c6-6 14-6 20 0 5 5 5 14 0 19l-81 81c-5 5-14 5-19 0l-83-82c-5-6-5-14 0-20 3-2 6-4 10-4 3 0 7 2 10 4l48 48c2-240 198-434 439-434 242 0 439 197 439 439s-197 439-439 439z" horiz-adv-x="1000" />

<glyph glyph-name="home" unicode="&#xe834;" d="M586 709c-21 28-54 42-86 42-32 0-65-14-86-42l-249-331c-7-10-10-21-10-32l0-344c-1-14 4-26 15-37 11-11 23-16 38-16h585c14 0 26 5 37 16 11 11 16 23 15 37l0 344c0 11-3 22-10 32l-249 331z m7-707h-186v266h186v-266z m-51 679l251-333v-346h-173v266c0 8-3 14-8 19-5 4-11 7-19 7h-186c-8 0-14-3-19-7-5-5-8-11-8-19v-266h-172v346l250 333c10 13 26 21 42 21 16 0 32-8 42-21z" horiz-adv-x="1000" />

<glyph glyph-name="horario" unicode="&#xe835;" d="M208 350c0 69 24 129 73 181l36 201c2 12 8 22 18 30 10 8 21 13 35 13h213c12 0 23-4 33-13 9-8 16-18 18-30l39-208c32-36 52-77 61-122l2 1c1 0 2 1 3 1 14 0 27-6 37-17 11-10 17-23 17-37s-6-27-17-37c-10-11-23-16-37-16h-3l-2 1c-10-48-31-89-65-126l-38-204c-2-12-8-23-17-30-9-8-20-13-34-13h-213c-13 0-25 4-34 13-9 8-15 18-17 30l-39 204c-46 51-69 111-69 178z m53 0c0-58 21-108 62-150 42-42 92-63 151-63 59 1 109 22 149 63 41 40 62 91 63 150 1 60-20 110-63 151-43 40-93 61-149 62-57 0-107-21-151-62-44-42-64-93-62-151z m26 0c0 8 3 14 8 19 5 4 11 7 19 7 7 1 14-2 19-7 6-6 8-12 7-19-1-7-3-13-7-19-3-5-10-8-19-7-10 0-16 3-19 7-3 5-5 11-8 19z m46 113c0 7 3 14 8 19 5 5 12 7 20 7 7 0 14-2 18-7 5-5 7-12 8-19 0-7-2-14-8-19-5-6-12-8-18-7-7 1-14 3-20 7-6 3-9 9-8 19z m0-225c0 7 3 13 8 19 5 5 12 7 20 6 7 0 14-3 18-6 5-4 7-11 8-19 0-9-2-15-8-19-5-4-12-7-18-8-7-2-14 1-20 8-6 7-9 14-8 19z m7-117l27-144h213l26 144c-42-24-86-36-132-36-47 0-91 12-134 36z m4 459c42 23 86 35 132 35 47 0 91-12 134-35l-27 142h-213l-26-142z m102-70c0 7 3 14 8 19 5 5 12 7 20 7s14-2 18-7c5-5 7-12 8-19 1-7-2-14-8-20-5-5-12-8-18-7-7 0-14 3-20 7-6 5-9 11-8 20z m0-319c0 7 3 14 8 19 5 5 12 7 20 7s14-2 18-7c5-5 7-12 8-19 1-7-2-14-8-20-5-5-12-8-18-7-7 0-14 3-20 7-6 5-9 12-8 20z m0 159c0 8 3 14 9 19l138 114c4 3 8 3 12-1 3-4 4-8 1-12l-64-80-50-60c-5-4-11-6-18-6-8 0-14 2-20 7-6 5-8 12-8 19z m114-112c0 7 2 13 7 19 5 5 11 7 18 6 7 0 13-3 20-6 6-4 9-11 8-20 0-7-3-13-8-18-6-5-13-8-20-8-7-1-13 2-18 8-4 6-7 13-7 19z m46 112c0 8 3 14 8 19 5 4 11 7 19 7 7 1 13-2 18-7 6-6 8-12 8-19 0-7-2-13-8-19-5-5-11-8-18-7-8 0-14 3-19 7-5 5-8 11-8 19z" horiz-adv-x="1000" />

<glyph glyph-name="importar-lista" unicode="&#xe836;" d="M579 789l159-159h-106c-14 0-26 5-36 15-11 11-17 24-17 38v106z m26-932c23 1 42 9 57 24 16 15 23 34 23 56v27h27c23 1 42 9 57 24 15 15 23 34 23 56v12c110 25 193 124 193 242 0 118-83 216-193 241v91c0 14-5 27-15 38l-159 159c-12 11-24 16-39 16h-377c-23-1-42-9-57-24-16-15-23-34-23-56v-27h-27c-23-1-42-9-57-24-15-15-23-34-23-56v-719c-1-21 7-40 23-56 16-16 35-24 57-24h510z m27 80c0-8-2-15-7-19-5-5-12-7-20-7h-510c-9-1-15 2-20 7-4 5-7 11-7 19v719c0 7 2 14 7 19 5 5 12 7 20 7h27v-638c-1-21 7-40 23-56 15-16 34-24 57-24h430v-27z m106 107c1-8-1-15-6-19-6-5-12-7-20-7h-510c-9-1-15 1-20 7-5 5-7 11-7 19v719c0 7 2 13 7 19 5 5 12 7 20 7h351v-106c0-22 8-41 23-56 15-16 34-23 57-23h105v-58c0 0 0 0-1 0-69 0-131-28-176-74h-295c-14 0-26-11-26-26 0-15 12-26 26-26h255c-16-29-27-61-31-96h-224c-14 0-26-12-26-26s12-27 26-27h224c4-34 15-66 31-95h-255c-14 0-26-12-26-26 0-15 12-27 26-27h295c45-45 107-74 176-74 1 0 1 1 1 1v-6z m-1 58c-108 0-195 88-195 196 0 107 87 195 195 195s196-88 196-195c0-108-88-196-196-196z m58 305v-219c0-11-6-20-16-24-4-2-7-2-10-2-7 0-14 2-19 7l-110 110c-10 10-10 27 0 37l110 110c7 7 19 10 29 6 10-4 16-14 16-25z" horiz-adv-x="1000" />

<glyph glyph-name="italic" unicode="&#xe837;" d="M497 152c-3-8-4-15-6-21s-1-10-1-12c0-2 0-4 1-5s1-3 3-4c1-1 2-2 4-3 1-1 2-1 4-1 2 0 5 0 7 1 3 1 5 3 7 5 7 6 14 13 22 22s16 21 24 35l15-8c-22-38-37-66-46-85-10-18-40-28-91-28-9 0-17 2-25 4-8 3-14 7-19 12-6 5-10 11-12 18-3 7-4 14-4 22 0 5 0 11 2 17 1 7 3 14 5 23l59 203c3 10 5 19 6 26 2 8 3 14 3 19 0 3-1 6-3 9-1 2-3 5-5 7-3 3-7 4-10 6-4 1-8 1-13 1-2 0-7 0-17 0-9 0-15 0-18-1l2 37 168 23 26-19-88-303z m85 495c8-3 15-8 21-13 6-7 10-13 13-21 3-7 4-15 4-24 0-8-1-17-4-24-3-8-8-14-14-20-6-6-12-11-20-14-7-3-15-5-24-5-8 0-16 2-24 5-7 3-14 8-20 14-6 6-11 12-14 20-3 7-4 16-4 24 0 9 1 17 4 24 3 8 8 14 14 21 6 5 13 10 20 13 7 3 15 5 24 5 9 0 17-2 24-5z" horiz-adv-x="1000" />

<glyph glyph-name="lugar" unicode="&#xe838;" d="M500 622c-45 1-82-15-113-46-31-31-46-69-46-113-1-43 14-81 46-113 32-32 69-48 113-47 44 1 81 17 113 47 32 30 47 68 47 113-1 46-16 83-47 113-30 30-68 46-113 46z m94-253c-26-25-58-38-94-39-36 0-67 13-94 39-26 26-39 57-39 94 0 35 13 66 39 94 27 27 58 40 94 39 36-2 68-15 94-39 26-25 39-56 39-94 0-38-13-69-39-94z m132 314c-62 61-137 92-226 92-89 1-164-30-226-92-62-63-93-138-93-227 0-44 8-90 24-136 16-46 40-93 72-141 33-48 61-88 86-120 25-32 56-69 94-113 11-14 25-21 41-21h4c16 0 30 7 41 21 38 43 69 81 94 113 25 33 54 72 86 120 32 48 56 95 72 141s24 92 24 136c0 90-31 165-93 227z m16-354c-17-46-42-91-74-137s-58-82-80-109-49-61-85-102l-3-3c0 1-1 2-2 3h-1c-36 43-64 77-85 102-22 26-49 62-81 109-32 47-57 93-72 137-16 44-24 87-24 127-1 75 25 137 77 188 52 51 115 77 188 78 73 0 136-26 188-78 52-52 78-115 78-188 1-39-7-82-24-127z" horiz-adv-x="1000" />

<glyph glyph-name="mail" unicode="&#xe839;" d="M75 177v346c0 29 10 53 31 74 20 21 45 32 75 32h638c30 0 55-11 76-32 20-21 30-45 30-74v-346c0-30-10-55-30-75-21-21-46-31-76-31h-638c-30 0-55 10-75 31-21 20-31 45-31 75z m53 346l208-157 23-16 110-83c9-7 19-10 31-10 12 0 22 3 31 10l341 256c0 14-5 26-16 37-10 11-22 16-37 15h-638c-14 0-26-5-37-15-11-10-16-23-16-37z m0-312l186 139-186 139v-278z m0-34c0-14 6-27 16-37 10-10 22-16 37-16h638c14 0 27 5 37 16 11 11 16 23 16 37l-208 156-115-86c-15-11-31-17-49-17-18 0-34 6-48 17l-116 86-208-156z m558 173l186-139v278l-186-139z" horiz-adv-x="1000" />

<glyph glyph-name="monitor" unicode="&#xe83a;" d="M75 137v532c0 22 8 41 23 56 15 15 34 23 57 24h690c22 0 41-8 57-24 16-16 24-35 23-56v-532c0-22-7-40-23-56-15-15-34-23-57-23h-265v-32l166-21c13-4 19-13 19-28 0-7-2-13-6-18-5-5-11-8-20-8h-478c-8 0-14 3-19 8-6 5-8 11-7 18 0 15 6 24 19 28l166 21v32h-265c-22 0-41 7-57 23-16 16-24 35-23 56z m53 0c0-7 3-14 7-18s11-7 20-8h690c8 0 15 3 20 8 5 5 7 11 7 18v532c0 8-3 14-7 19-5 4-11 7-20 7h-690c-8 0-15-2-20-7-5-5-7-12-7-19v-532z m53 107v371c0 8 3 15 8 20 5 5 11 8 19 8h585c7 0 13-3 18-8 5-5 8-12 8-20v-371c0-8-3-14-8-19-5-4-11-7-18-8h-585c-8 0-14 3-19 8-5 5-8 11-8 19z m27 0h585v371h-585v-371z" horiz-adv-x="1000" />

<glyph glyph-name="mover" unicode="&#xe83b;" d="M756 369l-56 56c-10 10-27 10-37 0-11-10-11-27 0-37l11-12h-148v148l12-11c5-5 12-8 19-8 6 0 13 3 18 8 10 10 10 27 0 37l-56 56c-11 11-27 11-38 0l-56-56c-10-10-10-27 0-37 10-11 27-11 37 0l12 11v-148h-148l11 12c11 10 11 27 0 37-10 10-27 10-37 0l-56-56c-11-11-11-27 0-38l56-56c5-5 12-8 19-8 7 0 13 3 18 8 11 10 11 27 0 37l-11 12h148v-148l-12 11c-10 11-27 11-37 0-10-10-10-27 0-37l56-56c6-6 12-8 19-8 7 0 14 2 19 8l56 56c10 10 10 27 0 37-10 11-27 11-37 0l-12-11v148h148l-11-12c-11-10-11-27 0-37 5-5 12-8 18-8s14 3 19 8l56 56c11 11 11 27 0 38z" horiz-adv-x="1000" />

<glyph glyph-name="notificaci-off" unicode="&#xe83c;" d="M811 101l-76 152v203c0 42-10 81-32 117-21 36-49 65-85 86-36 21-75 32-118 32-42 0-82-11-117-32-36-21-65-50-86-86-21-36-32-75-32-117v-203l-76-152c-4-8-3-18 1-26 5-7 14-12 23-12h195c15-36 51-60 92-60s77 24 93 60h195c9 0 17 5 22 12 5 8 5 18 1 26z m-468 445c16 29 38 50 67 67 27 17 57 25 90 25 33 0 64-9 91-25 28-17 50-38 67-67 17-28 25-57 25-90v-195h-365v195c0 33 8 62 25 90z m-87-430l58 117h372l59-117h-489z" horiz-adv-x="1000" />

<glyph glyph-name="notificaci-on" unicode="&#xe83d;" d="M848 478c35 36 52 78 52 127 0 48-17 90-52 125-35 36-77 54-127 53-49 0-92-18-126-53-15-14-26-30-35-48-19 6-39 9-60 9-42 0-82-11-117-32-36-21-65-50-86-86-21-36-32-75-32-117v-203l-76-152c-4-8-3-18 2-26 4-7 13-12 22-12h195c15-36 51-60 92-60s77 24 93 60h195c9 0 17 5 22 12 5 8 5 18 1 26l-76 152v173c44 2 81 19 113 52z m-229 214c24 28 55 44 91 46 37 3 70-8 98-32 29-24 45-54 48-91s-8-70-33-98c-24-29-54-44-91-47-37-3-69 8-98 32-29 25-44 55-47 92-3 37 8 69 32 98z m-301-236c0 33 8 62 25 90 16 29 38 50 66 67 28 17 58 25 91 25 16 0 30-2 45-6-2-9-3-18-3-27 0-51 18-94 53-127 25-24 54-40 88-47v-170h-365v195z m427-340h-489l58 117h372l59-117z m-28 436h8c10 0 17 7 18 16l13 138c0 5-2 10-5 14-3 4-8 6-13 6h-33c-5 0-10-2-14-6s-5-9-4-14l12-138c1-9 9-16 18-16z" horiz-adv-x="1000" />

<glyph glyph-name="ordenar-az" unicode="&#xe83e;" d="M496 9l-227 228c-8 8-18 12-29 12-12 0-22-4-29-12-8-8-12-18-12-29 0-12 4-21 12-29l256-257c8-8 18-12 29-12 11 0 21 4 28 12l257 257c8 8 12 17 12 29 0 11-4 21-12 29s-18 12-29 12c-12 0-21-4-29-12l-227-228z" horiz-adv-x="1000" />

<glyph glyph-name="ordenar-za" unicode="&#xe83f;" d="M269 445c-8-8-18-12-29-12-12 0-22 4-29 12-8 8-12 18-12 29 0 12 4 22 12 29l256 257c8 8 18 12 29 12 11 0 21-4 28-12l257-257c8-8 12-17 12-29 0-11-4-21-12-29-8-8-18-12-29-12-12 0-21 4-29 12l-227 228-227-228z" horiz-adv-x="1000" />

<glyph glyph-name="pais" unicode="&#xe840;" d="M88 350c0 114 40 211 121 291 80 80 177 120 291 121 113 1 210-40 291-121 81-81 122-178 121-291-1-112-41-210-121-291-80-82-177-122-291-121-115 1-212 41-291 121-80 79-120 176-121 291z m54 13h159c2 59 12 115 31 167-35 14-68 33-99 58-58-64-89-139-91-225z m0-26c4-94 39-174 106-241 29 21 60 38 93 51-25 60-38 124-40 190h-159z m108 270c29-22 60-39 92-52 25 57 58 107 100 149-74-12-138-45-192-97z m18-529c49-44 107-70 174-81-36 36-66 78-89 126-31-11-59-26-85-45z m59 285h160v134c-44 1-88 10-130 24-18-49-28-102-30-158z m0-26c2-63 15-123 38-181 39 12 80 20 122 22v159h-160z m40 209c39-13 79-21 120-23v185h-2c-51-43-90-97-118-162z m10-413c28-57 64-104 108-141h2v159c-39-3-76-9-110-18z m136 390c41 2 81 10 120 23-28 65-67 119-118 162h-2v-185z m0-160h160c-2 56-12 109-30 158-42-14-86-23-130-24v-134z m0-185c42-2 83-10 122-22 23 58 36 118 38 181h-160v-159z m0-186h2c44 37 80 84 108 141-35 9-71 15-110 18v-159z m45 712c42-42 75-92 100-149 32 13 62 30 91 52-53 52-116 85-191 97z m0-707c67 11 125 37 175 81-27 19-55 34-85 45-24-48-53-90-90-126z m102 150c32-13 63-30 92-51 67 67 102 147 106 241h-159c-2-66-15-130-39-190z m8 383c19-52 29-108 31-167h159c-3 86-33 161-91 225-31-25-64-44-99-58z" horiz-adv-x="1000" />

<glyph glyph-name="preguntas" unicode="&#xe841;" d="M65 402c0 88 42 164 125 225 83 62 183 93 300 93 117 0 217-31 301-93 84-61 125-137 124-225-1-88-42-164-124-226-81-63-182-93-301-93-26 0-54 2-81 6-17-20-42-42-76-66-34-25-69-40-104-47h-8c-6 0-12 2-17 7-4 4-6 10-6 17 0 3 0 7 1 10 0 1 4 7 11 18 8 11 13 19 16 25 3 5 6 13 11 25 4 12 8 22 11 31 3 8 4 17 3 27v2c-58 30-103 68-136 113s-49 97-50 151z m54 0c0-43 13-83 40-122 28-38 66-70 117-94 19-10 28-26 28-48v-6c0-23-6-49-18-78 34 21 61 44 81 68 10 14 24 21 42 21 2 0 4-1 6-2 26-3 51-5 75-5 103 0 191 26 264 78 72 52 108 115 108 188-1 73-37 135-108 187-72 52-160 78-264 78-104 1-192-25-263-78-72-53-108-115-108-187z m264 85c0 15 5 31 15 46 10 16 24 29 43 39 18 10 40 15 65 15 23 0 43-4 61-13 18-8 31-20 41-35 10-14 15-30 15-47 0-14-3-26-9-36s-12-19-19-26c-8-8-21-20-41-38-5-5-10-9-13-13-3-4-6-7-7-10-2-3-3-6-4-9-1-4-2-9-4-17-3-16-13-25-28-25-9 0-16 3-21 8-6 6-9 14-9 25 0 13 2 25 6 34 4 10 10 19 17 26s16 16 28 27c10 9 17 15 22 20 4 4 8 9 11 15 3 6 5 12 5 18 0 13-5 24-14 32-10 9-22 14-37 14-18 0-31-5-39-14-8-9-15-22-21-39-5-18-16-27-31-27-9 0-16 3-22 10-6 6-10 13-10 20z m117-262c-10 0-18 3-25 10-8 6-11 15-11 26 0 10 3 18 10 25 7 7 16 11 26 11 10 0 19-4 25-11 7-7 11-15 11-25 0-11-4-20-11-26-7-7-15-10-25-10z" horiz-adv-x="1000" />

<glyph glyph-name="mail-1" unicode="&#xe842;" d="M0 163l0 406q0 51 36 88t89 37l750 0q53 0 89-37t36-88l0-406q0-53-36-89t-89-36l-750 0q-53 0-89 36t-36 89z m63 0q0-26 18-44t44-19l750 0q25 0 44 19t18 44l-244 183-136-101q-26-20-57-20t-57 20l-136 101z m0 39l218 164-218 164 0-328z m0 367l244-184 27-19 129-98q16-12 37-12t37 12l400 301q0 25-18 44t-44 18l-750 0q-25 0-44-18t-18-44z m656-203l218-164 0 328z" horiz-adv-x="1000" />

<glyph glyph-name="heart" unicode="&#xe843;" d="M0 476q0 122 88 210 84 84 204 86t208-78q88 80 208 78t204-86q88-88 88-210t-88-210q-4-4-346-342-27-27-66-27t-66 27q-2 0-346 342-88 88-88 210z m63 0q0-97 70-165l346-342q21-23 43 0l345 342q70 68 70 165t-70 165q-66 66-160 68t-164-60l-43-39-43 39q-70 62-164 60t-160-68q-70-68-70-165z m93 7q0 55 39 94t94 39q16 0 16-16t-16-16q-41 0-71-29t-30-72q0-16-16-16t-16 16z" horiz-adv-x="1000" />

<glyph glyph-name="star" unicode="&#xe844;" d="M4 457q14 41 57 47l262 39 113 235q19 41 64 41t65-41l113-235 262-39q43-6 56-47t-15-70l-192-191 43-264q8-43-29-68-18-14-41-14-18 0-35 8l-227 123-226-123q-18-8-35-8-24 0-41 14-38 25-30 68l43 264-189 191q-32 29-18 70z m69-21l191-191q25-26 19-61l-44-264 226 123q16 8 35 8t35-8l227-123-45 264q-6 35 20 61l191 191-260 37q-39 6-54 41l-114 234-113-234q-16-35-55-39z" horiz-adv-x="1001" />

<glyph glyph-name="videocam" unicode="&#xe845;" d="M0 100l0 500q0 39 27 66t67 28l594 0q39 0 66-28t27-66l0-39 84 84q20 17 45 17l27 0q26 0 44-18t19-44l0-500q0-27-19-45t-44-17l-27 0q-25 0-45 17l-84 84 0-39q0-39-27-66t-66-28l-594 0q-39 0-67 28t-27 66z m63 0q0-14 8-22t23-9l594 0q13 0 22 9t9 22l0 500q0 14-9 22t-22 9l-594 0q-14 0-23-9t-8-22l0-500z m687 156l31-31 125-125 31 0 0 500-31 0-156-156 0-188z" horiz-adv-x="1000" />

<glyph glyph-name="camera" unicode="&#xe846;" d="M0 6l0 469q0 35 23 61t55 31l135 23 43 108q12 27 35 43t53 15l312 0q30 0 53-15t35-43l43-108 135-23q33-6 56-31t22-61l0-469q0-39-27-66t-67-28l-812 0q-39 0-67 28t-27 66z m63 0q0-13 8-22t23-9l812 0q14 0 23 9t8 22l0 469q0 27-25 31l-170 28-56 140q-8 20-30 20l-312 0q-22 0-30-20l-56-140-170-28q-25-4-25-31l0-469z m187 282q0 103 73 176t177 74 177-74 73-176-73-177-177-73-177 73-73 177z m63-15q5-77 65-128t137-45 128 65 45 137-66 128-137 45-128-65-44-137z m62 15q0 50 36 87t89 38q16 0 16-16t-16-16q-39 0-66-27t-28-66q0-16-15-16t-16 16z" horiz-adv-x="1000" />

<glyph glyph-name="photo" unicode="&#xe847;" d="M0-25l0 750q0 53 36 89t89 36l687 0q53 0 89-36t36-89l0-750q0-53-36-89t-89-36l-687 0q-53 0-89 36t-36 89z m63 0q0-25 18-44t44-19l687 0q26 0 44 19t19 44l0 750q0 25-19 44t-44 18l-687 0q-25 0-44-18t-18-44l0-750z m62 156l0 563q0 13 9 22t22 9l625 0q14 0 23-9t9-22l0-563q0-13-9-22t-23-9l-625 0q-13 0-22 9t-9 22z m31 0l483 0-88 100-18 21-252 286-125-145 0-262z m0 311l102 117q10 10 23 10t24-10l246-281 82 94q10 9 23 9t24-9l101-112 0 434-625 0 0-252z m344 96q0 39 27 66t67 27 66-27 28-66-28-67-66-27-67 27-27 67z m31 0q0-26 19-44t44-19 44 19 18 44-18 43-44 19-44-19-19-43z m41-284l108-123 101 0 0 82-125 137z" horiz-adv-x="937" />

<glyph glyph-name="attach" unicode="&#xe848;" d="M0 99q0 91 64 155l456 451q82 82 199 82t199-82 82-199-82-199l-344-342q-21-23-44-1t1 44l338 340q65 63 65 153t-65 156-155 64-153-64l-454-448q-44-45-44-109t45-110 111-46 109 45l457 451q27 27 27 66t-27 67-66 27-67-27l-341-344q-24-22-45 1t0 44l341 344q47 44 112 44t110-45 46-111-45-111l-457-449q-64-65-155-65t-154 64-64 154z" horiz-adv-x="1000" />

<glyph glyph-name="lock" unicode="&#xe849;" d="M0 131l0 219q0 39 27 66t67 28l0 125q0 117 82 199t199 82 199-82 82-199l0-125q39 0 67-28t27-66l0-219q0-117-82-199t-199-82l-188 0q-117 0-199 82t-82 199z m63 0q0-90 64-154t154-65l188 0q90 0 154 65t65 154l0 219q0 14-9 22t-23 9l-562 0q-14 0-23-9t-8-22l0-219z m93 313l63 0 0 125q0 64 46 110t110 46 110-46 46-110l0-125 63 0 0 125q0 90-65 154t-154 64-154-64-65-154l0-125z m94 0l250 0 0 125q0 52-36 89t-89 36-89-36-36-89l0-125z m63-250q0 25 18 44t44 18 44-18 19-44q0-28-22-84-14-41-41-41t-41 41q-21 56-21 84z" horiz-adv-x="750" />

<glyph glyph-name="eye" unicode="&#xe84a;" d="M0 341l0 18q0 1 2 3l0 4q70 130 206 213t290 83 291-83 205-215l1-1 1-1 0-4q2-6 2-8t-2-8l0-4-1-1-1-1q-68-132-205-215t-291-83-290 83-206 215l0 2q-2 2-2 3z m66 9q65-113 183-182t250-68 250 68 183 182q-65 113-183 182t-250 68-250-68-183-182z m213 0q0 90 65 154t154 65 154-65 65-154-65-154-154-65-154 65-65 154z m32 0q0-78 54-133t133-54 133 54 55 133-55 133-133 55-133-55-54-133z m62 0q0 53 37 89t88 36q16 0 16-16t-16-15q-37 0-65-28t-29-66q0-16-15-16t-16 16z" horiz-adv-x="998" />

<glyph glyph-name="tag" unicode="&#xe84b;" d="M0 100l0 500q0 51 36 88t89 37l594 0q68 0 105-59l156-250q43-66 0-132l-156-250q-37-59-105-59l-594 0q-53 0-89 36t-36 89z m63 0q0-25 18-44t44-18l594 0q35 0 52 29l157 250q21 33 0 66l-157 250q-17 29-52 29l-594 0q-25 0-44-18t-18-44l0-500z m562 250q0 39 27 66t67 28 66-28 27-66-27-66-66-28-67 28-27 66z m31 0q0-25 19-44t44-18 44 18 18 44-18 44-44 19-44-19-19-44z" horiz-adv-x="1002" />

<glyph glyph-name="thumbs-up" unicode="&#xe84c;" d="M0-56l0 500q0 39 27 66t67 28l94 0q32 0 60-24 12 6 33 16 123 64 125 226 0 39 28 67t66 27q57 0 105-64t49-147q0-66-8-103 237-6 266-14 43-12 66-43t22-63l0-23q-2-39-27-68 17-34 11-75-7-54-41-86 16-37 0-83-17-59-52-83 7-27 0-54-6-18-14-34-33-60-111-60l-172 0q-92 0-186 21-92 22-127 30l-2 0q0 2-3 2l-4 0 0 2q-28-55-84-55l-94 0q-39 0-67 27t-27 67z m63 0q0-14 8-23t23-9l94 0q13 0 22 9t9 23l0 500q0 13-9 22t-22 9l-94 0q-14 0-23-9t-8-22l0-500z m31 47q0 19 13 33t34 14 33-14 14-33-14-34-33-13-34 13-13 34z m31 0q0-16 16-16t15 16-15 15-16-15z m125 3q0-23 27-27 22-6 145-35 88-20 172-20l172 0q41 0 56 28 6 15 8 23 6 12-2 28t-29 15l-49 0q-16 0-16 16t16 16l51 0q31 0 49 10t22 20 11 30q21 65-39 65l-63 0q-15 0-15 15t15 16l74 0q57 0 69 66 2 22-9 40t-42 19l-61 0q-15 0-15 15t15 16l63 0q61 0 62 45l0 21q0 38-37 47-45 12-337 12 19 59 24 84t5 80q0 57-32 103t-60 45q-31 0-31-31-2-92-46-173t-142-122q-2 0-4-1l-2-1q-25-7-25-33l0-432z" horiz-adv-x="1000" />

<glyph glyph-name="comment" unicode="&#xe84d;" d="M0 413q0 156 147 265t353 109 354-109 146-265-146-266-354-109q-47 0-96 7-29-35-89-78t-122-55l-9 0q-12 0-20 8t-8 20q0 6 2 12 0 1 13 21t18 29 13 30 13 36 4 32l0 2q-102 53-160 134t-59 177z m63 0q0-75 48-143t137-111q33-18 33-57l0-6q0-41-21-92 60 37 95 80 18 24 49 24 4 0 8-2 45-6 88-6 182 0 310 92t127 221-127 220-310 92-310-92-127-220z m93 0q0 89 102 154t242 64q16 0 16-15t-16-16q-125 0-219-57t-93-130q0-16-16-16t-16 16z" horiz-adv-x="1000" />

<glyph glyph-name="key" unicode="&#xe84e;" d="M0-88l0 94q0 20 18 39l379 379q-22 57-22 114 0 128 92 220t221 92 220-92 92-220-92-221-220-92q-57 0-114 22l-74-73 0-74q0-25-19-44t-43-18l-63 0 0-63q0-25-19-44t-43-19l-73 0-45-44q-17-18-39-18l-93 0q-26 0-44 19t-19 43z m63 0l87 0 45 45q18 18 45 18l73 0 0 63q0 25 18 43t44 19l63 0 0 74q0 26 17 43l61 61 35 35 10 10q60-35 127-35 103 0 176 73t73 177-73 176-176 73-177-73-73-176q0-67 35-127l-45-45-365-364 0-90z m562 713q0 4 2 10 23 65 88 88 15 6 27-4 74-53 127-127 6-8 6-17 0-4-2-10-23-65-88-88-15-6-27 4-74 53-127 127-6 8-6 17z m31 0q51-70 119-119 51 18 69 69-49 68-119 119-51-18-69-69z" horiz-adv-x="1000" />

<glyph glyph-name="database" unicode="&#xe84f;" d="M0 53l0 594q0 98 131 150t307 53 306-53 131-150l0-594q0-98-131-150t-306-53-307 53-131 150z m63 0q0-59 109-100t266-41 265 41 109 100l0 117q-46-48-150-75t-224-26-225 26-150 75l0-117z m0 188q0-59 109-100t266-41 265 41 109 100l0 117q-46-49-150-75t-224-27-225 27-150 75l0-117z m0 187q0-58 109-99t266-41 265 41 109 99l0 108q-58-45-160-69t-214-23-215 23-160 69l0-108z m0 219q0-59 109-100t266-41 265 41 109 100-109 99-265 41-266-41-109-99z m625-609q0 13 8 22t23 9 22-9 9-22-9-23-22-9-23 9-8 23z m0 187q0 14 8 22t23 9 22-9 9-22-9-22-22-9-23 9-8 22z m0 188q0 13 8 22t23 9 22-9 9-22-9-23-22-9-23 9-8 23z" horiz-adv-x="875" />

<glyph glyph-name="cloud" unicode="&#xe850;" d="M0 178q0 55 27 102t75 74q-8 21-8 43 0 58 41 99t99 42q20 0 43-8 34 74 102 119t152 45q110 0 189-73t91-181q82-16 135-80t54-151q0-97-68-166t-166-68l-563 0q-84 0-143 60t-60 143z m63 0q0-58 41-99t99-41l563 0q70 0 121 50t50 121q0 63-39 110t-99 58q-35 8-42 15t-9 42q-8 84-70 141t-147 56q-62 0-117-34t-80-93q-10-19-12-24t-8-13-15-6-22 6q-21 10-43 8-33 0-55-22t-23-56q0-10 4-24 14-33 10-44t-37-30q-70-41-70-121z" horiz-adv-x="1000" />

<glyph glyph-name="inbox" unicode="&#xe851;" d="M0 38l0 218q0 8 2 18l125 469q6 19 22 32t39 12l624 0q22 0 39-12t22-32l125-469q2-10 2-18l0-218q0-53-36-89t-89-37l-750 0q-53 0-89 37t-36 89z m63 0q0-26 18-45t44-18l750 0q25 0 44 18t18 45l0 218-125 469-624 0-125-469 0-218z m58 226l108 375q5 23 29 23l484 0q24 0 29-23l108-375q4-16-5-27t-24-12l-143 0-45-90q-17-35-57-35l-210 0q-40 0-57 35l-45 90-143 0q-15 0-24 12t-5 27z m45 24l127 0q39 0 57-36l45-89 210 0 45 89q18 36 57 36l127 0-92 343-484 0z" horiz-adv-x="1000" />

<glyph glyph-name="lightbulb" unicode="&#xe852;" d="M0 506q0 143 101 243t243 101 243-101 101-243q0-54-30-121t-71-140-56-116q-15-39-31-94t-24-82-27-53-42-39-63-11-64 11-41 39-26 53-25 82-32 94q-13 43-55 117t-72 139-29 121z m63 0q0-64 82-213 37-64 52-99l293 0q16 35 53 99 82 151 82 213 0 117-82 199t-199 82-199-82-82-199z m93 0q0 78 55 133t133 55q15 0 15-16t-15-16q-65 0-111-45t-45-111q0-15-16-15t-16 15z m67-375q11-33 19-60l213 27q2 12 10 33l-242 0z m29-90q10-35 18-60l154 19q6 16 12 38 2 5 4 15t3 12z m29-89q12-26 25-33t38-7q29 0 43 10t27 45z" horiz-adv-x="687" />

<glyph glyph-name="note" unicode="&#xe853;" d="M0-25l0 750q0 39 27 66t67 28l656 0q25 0 45-18l187-187q18-20 18-45l0-594q0-39-27-66t-67-28l-812 0q-39 0-67 28t-27 66z m63 0q0-14 8-23t23-8l812 0q14 0 23 8t8 23l0 563-124 0q-40 0-67 27t-27 66l0 125-625 0q-14 0-23-9t-8-22l0-750z m62 78q0 16 16 16l718 0q16 0 16-16t-16-15l-718 0q-16 0-16 15z m0 94q0 16 16 16l718 0q16 0 16-16t-16-16l-718 0q-16 0-16 16z m0 94q0 15 16 15l718 0q16 0 16-15t-16-16l-718 0q-16 0-16 16z m0 93q0 16 16 16l718 0q16 0 16-16t-16-15l-718 0q-16 0-16 15z m0 110l0 187q0 14 9 23t22 8l219 0q14 0 22-8t9-23l0-187q0-14-9-23t-22-8l-219 0q-13 0-22 8t-9 23z m63 31l156 0 0 125-156 0 0-125z m281-47q0 16 15 16l375 0q16 0 16-16t-16-15l-375 0q-15 0-15 15z m0 94q0 16 15 16l157 0q15 0 15-16t-15-16l-157 0q-15 0-15 16z m0 94q0 15 15 15l157 0q15 0 15-15t-15-16l-157 0q-15 0-15 16z m281 15q0-25 19-44t43-18l125 0-187 187 0-125z" horiz-adv-x="1000" />

<glyph glyph-name="money" unicode="&#xe854;" d="M3 243q31 97 107 173 59 61 203 145 129 74 178 123 55 55 74 121 6 16 16 27 14 12 29 16 35 8 61-16l312-312q26-27 16-63-31-99-108-173-58-61-203-145-129-74-177-123-55-53-75-121-6-16-15-27-14-12-30-16-35-8-60 16l-313 312q-25 27-15 63z m60-18l99-99 115-115 99-99q25 79 84 140t128 102l138 80t129 101 83 140l-157 157-155 155q-24-78-83-139t-129-102l-139-80t-128-101-84-140z m274-199l21 29q22 27 47 53 22 23 55 49 11 9 21 0 12-12 0-24l-2 0q-31-25-52-47-24-23-43-48l-20-28q-2-2-2-4-12-12-23 0-8 10-2 20z m27 359q2 18 10 33 8 18 19 32 0 2-5 5-4 2-4 7t4 10 8 5 7-4q4-4 8-6 8 8 20 16t28 12 29 1 24-15q8-8 8-18t-8-15q-5-6-15-4-6 2-18 4-9 4-20 3t-23-11q20-20 51-57 14 8 31 14 16 6 32 8t31-3 31-17q14-12 20-25 4-14 2-30 0-15-10-33-8-19-22-37 8-6 16-13 4-2 5-7t-3-9-9-5-9 3q-9 8-15 16-18-18-35-24-16-6-34-6-15 2-28 8t-20 15-8 17 8 16 13 7 13-3 13-8 13-7 17 0 20 12q-21 21-56 62-32-17-65-19-29-2-50 15-14 12-20 26t-4 29z m42 11q-1-7 1-14t8-10q10-10 22-9t33 10q-30 32-49 51-6-8-10-14t-5-14z m112 143q-9 10 0 22 2 2 4 2 32 25 53 47 23 23 43 49l19 27q2 4 4 4 12 12 22 0 10-10 2-22l-22-29q-21-27-47-53-21-23-54-48-12-10-24 1z m4-195q32-35 53-56 6 5 10 13t6 16 0 14-9 14-15 9-15 1-16-5q-4-2-14-6z" horiz-adv-x="1001" />
</font>
</defs>
</svg>
